%TF.GenerationSoftware,KiCad,Pcbnew,6.0.2+dfsg-1~bpo11+1*%
%TF.CreationDate,2022-03-03T13:43:19-05:00*%
%TF.ProjectId,RFM98PW-433S2_breakout,52464d39-3850-4572-9d34-333353325f62,rev?*%
%TF.SameCoordinates,Original*%
%TF.FileFunction,Legend,Top*%
%TF.FilePolarity,Positive*%
%FSLAX46Y46*%
G04 Gerber Fmt 4.6, Leading zero omitted, Abs format (unit mm)*
G04 Created by KiCad (PCBNEW 6.0.2+dfsg-1~bpo11+1) date 2022-03-03 13:43:19*
%MOMM*%
%LPD*%
G01*
G04 APERTURE LIST*
%ADD10C,0.150000*%
%ADD11C,0.300000*%
%ADD12C,0.120000*%
%ADD13C,0.420555*%
%ADD14C,0.127000*%
G04 APERTURE END LIST*
D10*
X121158095Y-88654000D02*
X121062857Y-88606380D01*
X120920000Y-88606380D01*
X120777142Y-88654000D01*
X120681904Y-88749238D01*
X120634285Y-88844476D01*
X120586666Y-89034952D01*
X120586666Y-89177809D01*
X120634285Y-89368285D01*
X120681904Y-89463523D01*
X120777142Y-89558761D01*
X120920000Y-89606380D01*
X121015238Y-89606380D01*
X121158095Y-89558761D01*
X121205714Y-89511142D01*
X121205714Y-89177809D01*
X121015238Y-89177809D01*
X121634285Y-89606380D02*
X121634285Y-88606380D01*
X122205714Y-89606380D01*
X122205714Y-88606380D01*
X122681904Y-89606380D02*
X122681904Y-88606380D01*
X122920000Y-88606380D01*
X123062857Y-88654000D01*
X123158095Y-88749238D01*
X123205714Y-88844476D01*
X123253333Y-89034952D01*
X123253333Y-89177809D01*
X123205714Y-89368285D01*
X123158095Y-89463523D01*
X123062857Y-89558761D01*
X122920000Y-89606380D01*
X122681904Y-89606380D01*
X126730571Y-86431428D02*
X127492476Y-86431428D01*
X127111523Y-86812380D02*
X127111523Y-86050476D01*
X127873428Y-85812380D02*
X128492476Y-85812380D01*
X128159142Y-86193333D01*
X128302000Y-86193333D01*
X128397238Y-86240952D01*
X128444857Y-86288571D01*
X128492476Y-86383809D01*
X128492476Y-86621904D01*
X128444857Y-86717142D01*
X128397238Y-86764761D01*
X128302000Y-86812380D01*
X128016285Y-86812380D01*
X127921047Y-86764761D01*
X127873428Y-86717142D01*
X128778190Y-85812380D02*
X129111523Y-86812380D01*
X129444857Y-85812380D01*
X129682952Y-85812380D02*
X130302000Y-85812380D01*
X129968666Y-86193333D01*
X130111523Y-86193333D01*
X130206761Y-86240952D01*
X130254380Y-86288571D01*
X130302000Y-86383809D01*
X130302000Y-86621904D01*
X130254380Y-86717142D01*
X130206761Y-86764761D01*
X130111523Y-86812380D01*
X129825809Y-86812380D01*
X129730571Y-86764761D01*
X129682952Y-86717142D01*
X131682952Y-85812380D02*
X131873428Y-85812380D01*
X131968666Y-85860000D01*
X132063904Y-85955238D01*
X132111523Y-86145714D01*
X132111523Y-86479047D01*
X132063904Y-86669523D01*
X131968666Y-86764761D01*
X131873428Y-86812380D01*
X131682952Y-86812380D01*
X131587714Y-86764761D01*
X131492476Y-86669523D01*
X131444857Y-86479047D01*
X131444857Y-86145714D01*
X131492476Y-85955238D01*
X131587714Y-85860000D01*
X131682952Y-85812380D01*
X132540095Y-85812380D02*
X132540095Y-86621904D01*
X132587714Y-86717142D01*
X132635333Y-86764761D01*
X132730571Y-86812380D01*
X132921047Y-86812380D01*
X133016285Y-86764761D01*
X133063904Y-86717142D01*
X133111523Y-86621904D01*
X133111523Y-85812380D01*
X133444857Y-85812380D02*
X134016285Y-85812380D01*
X133730571Y-86812380D02*
X133730571Y-85812380D01*
X142787619Y-88566666D02*
X142787619Y-89185714D01*
X142406666Y-88852380D01*
X142406666Y-88995238D01*
X142359047Y-89090476D01*
X142311428Y-89138095D01*
X142216190Y-89185714D01*
X141978095Y-89185714D01*
X141882857Y-89138095D01*
X141835238Y-89090476D01*
X141787619Y-88995238D01*
X141787619Y-88709523D01*
X141835238Y-88614285D01*
X141882857Y-88566666D01*
X144994285Y-89090476D02*
X144327619Y-89090476D01*
X145375238Y-88852380D02*
X144660952Y-88614285D01*
X144660952Y-89233333D01*
X150407619Y-88852380D02*
X150407619Y-88947619D01*
X150360000Y-89042857D01*
X150312380Y-89090476D01*
X150217142Y-89138095D01*
X150026666Y-89185714D01*
X149788571Y-89185714D01*
X149598095Y-89138095D01*
X149502857Y-89090476D01*
X149455238Y-89042857D01*
X149407619Y-88947619D01*
X149407619Y-88852380D01*
X149455238Y-88757142D01*
X149502857Y-88709523D01*
X149598095Y-88661904D01*
X149788571Y-88614285D01*
X150026666Y-88614285D01*
X150217142Y-88661904D01*
X150312380Y-88709523D01*
X150360000Y-88757142D01*
X150407619Y-88852380D01*
X151947619Y-89185714D02*
X151947619Y-88614285D01*
X151947619Y-88900000D02*
X152947619Y-88900000D01*
X152804761Y-88804761D01*
X152709523Y-88709523D01*
X152661904Y-88614285D01*
X155392380Y-88614285D02*
X155440000Y-88661904D01*
X155487619Y-88757142D01*
X155487619Y-88995238D01*
X155440000Y-89090476D01*
X155392380Y-89138095D01*
X155297142Y-89185714D01*
X155201904Y-89185714D01*
X155059047Y-89138095D01*
X154487619Y-88566666D01*
X154487619Y-89185714D01*
X131037619Y-109934571D02*
X132037619Y-109934571D01*
X131323333Y-110267904D01*
X132037619Y-110601238D01*
X131037619Y-110601238D01*
X131037619Y-111077428D02*
X132037619Y-111077428D01*
X131085238Y-111506000D02*
X131037619Y-111648857D01*
X131037619Y-111886952D01*
X131085238Y-111982190D01*
X131132857Y-112029809D01*
X131228095Y-112077428D01*
X131323333Y-112077428D01*
X131418571Y-112029809D01*
X131466190Y-111982190D01*
X131513809Y-111886952D01*
X131561428Y-111696476D01*
X131609047Y-111601238D01*
X131656666Y-111553619D01*
X131751904Y-111506000D01*
X131847142Y-111506000D01*
X131942380Y-111553619D01*
X131990000Y-111601238D01*
X132037619Y-111696476D01*
X132037619Y-111934571D01*
X131990000Y-112077428D01*
X132037619Y-112696476D02*
X132037619Y-112886952D01*
X131990000Y-112982190D01*
X131894761Y-113077428D01*
X131704285Y-113125047D01*
X131370952Y-113125047D01*
X131180476Y-113077428D01*
X131085238Y-112982190D01*
X131037619Y-112886952D01*
X131037619Y-112696476D01*
X131085238Y-112601238D01*
X131180476Y-112506000D01*
X131370952Y-112458380D01*
X131704285Y-112458380D01*
X131894761Y-112506000D01*
X131990000Y-112601238D01*
X132037619Y-112696476D01*
X129427619Y-109934571D02*
X130427619Y-109934571D01*
X129713333Y-110267904D01*
X130427619Y-110601238D01*
X129427619Y-110601238D01*
X130427619Y-111267904D02*
X130427619Y-111458380D01*
X130380000Y-111553619D01*
X130284761Y-111648857D01*
X130094285Y-111696476D01*
X129760952Y-111696476D01*
X129570476Y-111648857D01*
X129475238Y-111553619D01*
X129427619Y-111458380D01*
X129427619Y-111267904D01*
X129475238Y-111172666D01*
X129570476Y-111077428D01*
X129760952Y-111029809D01*
X130094285Y-111029809D01*
X130284761Y-111077428D01*
X130380000Y-111172666D01*
X130427619Y-111267904D01*
X129475238Y-112077428D02*
X129427619Y-112220285D01*
X129427619Y-112458380D01*
X129475238Y-112553619D01*
X129522857Y-112601238D01*
X129618095Y-112648857D01*
X129713333Y-112648857D01*
X129808571Y-112601238D01*
X129856190Y-112553619D01*
X129903809Y-112458380D01*
X129951428Y-112267904D01*
X129999047Y-112172666D01*
X130046666Y-112125047D01*
X130141904Y-112077428D01*
X130237142Y-112077428D01*
X130332380Y-112125047D01*
X130380000Y-112172666D01*
X130427619Y-112267904D01*
X130427619Y-112506000D01*
X130380000Y-112648857D01*
X129427619Y-113077428D02*
X130427619Y-113077428D01*
X127865238Y-110220285D02*
X127817619Y-110363142D01*
X127817619Y-110601238D01*
X127865238Y-110696476D01*
X127912857Y-110744095D01*
X128008095Y-110791714D01*
X128103333Y-110791714D01*
X128198571Y-110744095D01*
X128246190Y-110696476D01*
X128293809Y-110601238D01*
X128341428Y-110410761D01*
X128389047Y-110315523D01*
X128436666Y-110267904D01*
X128531904Y-110220285D01*
X128627142Y-110220285D01*
X128722380Y-110267904D01*
X128770000Y-110315523D01*
X128817619Y-110410761D01*
X128817619Y-110648857D01*
X128770000Y-110791714D01*
X127912857Y-111791714D02*
X127865238Y-111744095D01*
X127817619Y-111601238D01*
X127817619Y-111506000D01*
X127865238Y-111363142D01*
X127960476Y-111267904D01*
X128055714Y-111220285D01*
X128246190Y-111172666D01*
X128389047Y-111172666D01*
X128579523Y-111220285D01*
X128674761Y-111267904D01*
X128770000Y-111363142D01*
X128817619Y-111506000D01*
X128817619Y-111601238D01*
X128770000Y-111744095D01*
X128722380Y-111791714D01*
X127817619Y-112220285D02*
X128817619Y-112220285D01*
X127817619Y-112791714D02*
X128389047Y-112363142D01*
X128817619Y-112791714D02*
X128246190Y-112220285D01*
X126302857Y-111339333D02*
X126255238Y-111291714D01*
X126207619Y-111148857D01*
X126207619Y-111053619D01*
X126255238Y-110910761D01*
X126350476Y-110815523D01*
X126445714Y-110767904D01*
X126636190Y-110720285D01*
X126779047Y-110720285D01*
X126969523Y-110767904D01*
X127064761Y-110815523D01*
X127160000Y-110910761D01*
X127207619Y-111053619D01*
X127207619Y-111148857D01*
X127160000Y-111291714D01*
X127112380Y-111339333D01*
X126255238Y-111720285D02*
X126207619Y-111863142D01*
X126207619Y-112101238D01*
X126255238Y-112196476D01*
X126302857Y-112244095D01*
X126398095Y-112291714D01*
X126493333Y-112291714D01*
X126588571Y-112244095D01*
X126636190Y-112196476D01*
X126683809Y-112101238D01*
X126731428Y-111910761D01*
X126779047Y-111815523D01*
X126826666Y-111767904D01*
X126921904Y-111720285D01*
X127017142Y-111720285D01*
X127112380Y-111767904D01*
X127160000Y-111815523D01*
X127207619Y-111910761D01*
X127207619Y-112148857D01*
X127160000Y-112291714D01*
X124597619Y-110053619D02*
X125073809Y-109720285D01*
X124597619Y-109482190D02*
X125597619Y-109482190D01*
X125597619Y-109863142D01*
X125550000Y-109958380D01*
X125502380Y-110006000D01*
X125407142Y-110053619D01*
X125264285Y-110053619D01*
X125169047Y-110006000D01*
X125121428Y-109958380D01*
X125073809Y-109863142D01*
X125073809Y-109482190D01*
X125121428Y-110482190D02*
X125121428Y-110815523D01*
X124597619Y-110958380D02*
X124597619Y-110482190D01*
X125597619Y-110482190D01*
X125597619Y-110958380D01*
X124645238Y-111339333D02*
X124597619Y-111482190D01*
X124597619Y-111720285D01*
X124645238Y-111815523D01*
X124692857Y-111863142D01*
X124788095Y-111910761D01*
X124883333Y-111910761D01*
X124978571Y-111863142D01*
X125026190Y-111815523D01*
X125073809Y-111720285D01*
X125121428Y-111529809D01*
X125169047Y-111434571D01*
X125216666Y-111386952D01*
X125311904Y-111339333D01*
X125407142Y-111339333D01*
X125502380Y-111386952D01*
X125550000Y-111434571D01*
X125597619Y-111529809D01*
X125597619Y-111767904D01*
X125550000Y-111910761D01*
X125121428Y-112339333D02*
X125121428Y-112672666D01*
X124597619Y-112815523D02*
X124597619Y-112339333D01*
X125597619Y-112339333D01*
X125597619Y-112815523D01*
X125597619Y-113101238D02*
X125597619Y-113672666D01*
X124597619Y-113386952D02*
X125597619Y-113386952D01*
D11*
X173470000Y-99949142D02*
X173541428Y-99806285D01*
X173541428Y-99592000D01*
X173470000Y-99377714D01*
X173327142Y-99234857D01*
X173184285Y-99163428D01*
X172898571Y-99092000D01*
X172684285Y-99092000D01*
X172398571Y-99163428D01*
X172255714Y-99234857D01*
X172112857Y-99377714D01*
X172041428Y-99592000D01*
X172041428Y-99734857D01*
X172112857Y-99949142D01*
X172184285Y-100020571D01*
X172684285Y-100020571D01*
X172684285Y-99734857D01*
X172041428Y-100663428D02*
X173541428Y-100663428D01*
X172041428Y-101520571D01*
X173541428Y-101520571D01*
X172041428Y-102234857D02*
X173541428Y-102234857D01*
X173541428Y-102592000D01*
X173470000Y-102806285D01*
X173327142Y-102949142D01*
X173184285Y-103020571D01*
X172898571Y-103092000D01*
X172684285Y-103092000D01*
X172398571Y-103020571D01*
X172255714Y-102949142D01*
X172112857Y-102806285D01*
X172041428Y-102592000D01*
X172041428Y-102234857D01*
X170072857Y-98909428D02*
X170072857Y-100052285D01*
X169501428Y-99480857D02*
X170644285Y-99480857D01*
X171001428Y-101480857D02*
X171001428Y-100766571D01*
X170287142Y-100695142D01*
X170358571Y-100766571D01*
X170430000Y-100909428D01*
X170430000Y-101266571D01*
X170358571Y-101409428D01*
X170287142Y-101480857D01*
X170144285Y-101552285D01*
X169787142Y-101552285D01*
X169644285Y-101480857D01*
X169572857Y-101409428D01*
X169501428Y-101266571D01*
X169501428Y-100909428D01*
X169572857Y-100766571D01*
X169644285Y-100695142D01*
X171001428Y-101980857D02*
X169501428Y-102480857D01*
X171001428Y-102980857D01*
X154496571Y-110977071D02*
X153996571Y-110262785D01*
X153639428Y-110977071D02*
X153639428Y-109477071D01*
X154210857Y-109477071D01*
X154353714Y-109548500D01*
X154425142Y-109619928D01*
X154496571Y-109762785D01*
X154496571Y-109977071D01*
X154425142Y-110119928D01*
X154353714Y-110191357D01*
X154210857Y-110262785D01*
X153639428Y-110262785D01*
X155639428Y-110191357D02*
X155139428Y-110191357D01*
X155139428Y-110977071D02*
X155139428Y-109477071D01*
X155853714Y-109477071D01*
X156425142Y-110977071D02*
X156425142Y-109477071D01*
X156925142Y-110548500D01*
X157425142Y-109477071D01*
X157425142Y-110977071D01*
X158210857Y-110977071D02*
X158496571Y-110977071D01*
X158639428Y-110905642D01*
X158710857Y-110834214D01*
X158853714Y-110619928D01*
X158925142Y-110334214D01*
X158925142Y-109762785D01*
X158853714Y-109619928D01*
X158782285Y-109548500D01*
X158639428Y-109477071D01*
X158353714Y-109477071D01*
X158210857Y-109548500D01*
X158139428Y-109619928D01*
X158068000Y-109762785D01*
X158068000Y-110119928D01*
X158139428Y-110262785D01*
X158210857Y-110334214D01*
X158353714Y-110405642D01*
X158639428Y-110405642D01*
X158782285Y-110334214D01*
X158853714Y-110262785D01*
X158925142Y-110119928D01*
X159782285Y-110119928D02*
X159639428Y-110048500D01*
X159568000Y-109977071D01*
X159496571Y-109834214D01*
X159496571Y-109762785D01*
X159568000Y-109619928D01*
X159639428Y-109548500D01*
X159782285Y-109477071D01*
X160068000Y-109477071D01*
X160210857Y-109548500D01*
X160282285Y-109619928D01*
X160353714Y-109762785D01*
X160353714Y-109834214D01*
X160282285Y-109977071D01*
X160210857Y-110048500D01*
X160068000Y-110119928D01*
X159782285Y-110119928D01*
X159639428Y-110191357D01*
X159568000Y-110262785D01*
X159496571Y-110405642D01*
X159496571Y-110691357D01*
X159568000Y-110834214D01*
X159639428Y-110905642D01*
X159782285Y-110977071D01*
X160068000Y-110977071D01*
X160210857Y-110905642D01*
X160282285Y-110834214D01*
X160353714Y-110691357D01*
X160353714Y-110405642D01*
X160282285Y-110262785D01*
X160210857Y-110191357D01*
X160068000Y-110119928D01*
X160996571Y-110977071D02*
X160996571Y-109477071D01*
X161568000Y-109477071D01*
X161710857Y-109548500D01*
X161782285Y-109619928D01*
X161853714Y-109762785D01*
X161853714Y-109977071D01*
X161782285Y-110119928D01*
X161710857Y-110191357D01*
X161568000Y-110262785D01*
X160996571Y-110262785D01*
X162353714Y-109477071D02*
X162710857Y-110977071D01*
X162996571Y-109905642D01*
X163282285Y-110977071D01*
X163639428Y-109477071D01*
X164210857Y-110405642D02*
X165353714Y-110405642D01*
X166710857Y-109977071D02*
X166710857Y-110977071D01*
X166353714Y-109405642D02*
X165996571Y-110477071D01*
X166925142Y-110477071D01*
X167353714Y-109477071D02*
X168282285Y-109477071D01*
X167782285Y-110048500D01*
X167996571Y-110048500D01*
X168139428Y-110119928D01*
X168210857Y-110191357D01*
X168282285Y-110334214D01*
X168282285Y-110691357D01*
X168210857Y-110834214D01*
X168139428Y-110905642D01*
X167996571Y-110977071D01*
X167568000Y-110977071D01*
X167425142Y-110905642D01*
X167353714Y-110834214D01*
X168782285Y-109477071D02*
X169710857Y-109477071D01*
X169210857Y-110048500D01*
X169425142Y-110048500D01*
X169568000Y-110119928D01*
X169639428Y-110191357D01*
X169710857Y-110334214D01*
X169710857Y-110691357D01*
X169639428Y-110834214D01*
X169568000Y-110905642D01*
X169425142Y-110977071D01*
X168996571Y-110977071D01*
X168853714Y-110905642D01*
X168782285Y-110834214D01*
X170282285Y-110905642D02*
X170496571Y-110977071D01*
X170853714Y-110977071D01*
X170996571Y-110905642D01*
X171068000Y-110834214D01*
X171139428Y-110691357D01*
X171139428Y-110548500D01*
X171068000Y-110405642D01*
X170996571Y-110334214D01*
X170853714Y-110262785D01*
X170568000Y-110191357D01*
X170425142Y-110119928D01*
X170353714Y-110048500D01*
X170282285Y-109905642D01*
X170282285Y-109762785D01*
X170353714Y-109619928D01*
X170425142Y-109548500D01*
X170568000Y-109477071D01*
X170925142Y-109477071D01*
X171139428Y-109548500D01*
X171710857Y-109619928D02*
X171782285Y-109548500D01*
X171925142Y-109477071D01*
X172282285Y-109477071D01*
X172425142Y-109548500D01*
X172496571Y-109619928D01*
X172568000Y-109762785D01*
X172568000Y-109905642D01*
X172496571Y-110119928D01*
X171639428Y-110977071D01*
X172568000Y-110977071D01*
X158210857Y-112606357D02*
X158425142Y-112677785D01*
X158496571Y-112749214D01*
X158568000Y-112892071D01*
X158568000Y-113106357D01*
X158496571Y-113249214D01*
X158425142Y-113320642D01*
X158282285Y-113392071D01*
X157710857Y-113392071D01*
X157710857Y-111892071D01*
X158210857Y-111892071D01*
X158353714Y-111963500D01*
X158425142Y-112034928D01*
X158496571Y-112177785D01*
X158496571Y-112320642D01*
X158425142Y-112463500D01*
X158353714Y-112534928D01*
X158210857Y-112606357D01*
X157710857Y-112606357D01*
X160068000Y-113392071D02*
X159568000Y-112677785D01*
X159210857Y-113392071D02*
X159210857Y-111892071D01*
X159782285Y-111892071D01*
X159925142Y-111963500D01*
X159996571Y-112034928D01*
X160068000Y-112177785D01*
X160068000Y-112392071D01*
X159996571Y-112534928D01*
X159925142Y-112606357D01*
X159782285Y-112677785D01*
X159210857Y-112677785D01*
X160710857Y-112606357D02*
X161210857Y-112606357D01*
X161425142Y-113392071D02*
X160710857Y-113392071D01*
X160710857Y-111892071D01*
X161425142Y-111892071D01*
X161996571Y-112963500D02*
X162710857Y-112963500D01*
X161853714Y-113392071D02*
X162353714Y-111892071D01*
X162853714Y-113392071D01*
X163353714Y-113392071D02*
X163353714Y-111892071D01*
X164210857Y-113392071D02*
X163568000Y-112534928D01*
X164210857Y-111892071D02*
X163353714Y-112749214D01*
X165139428Y-111892071D02*
X165425142Y-111892071D01*
X165568000Y-111963500D01*
X165710857Y-112106357D01*
X165782285Y-112392071D01*
X165782285Y-112892071D01*
X165710857Y-113177785D01*
X165568000Y-113320642D01*
X165425142Y-113392071D01*
X165139428Y-113392071D01*
X164996571Y-113320642D01*
X164853714Y-113177785D01*
X164782285Y-112892071D01*
X164782285Y-112392071D01*
X164853714Y-112106357D01*
X164996571Y-111963500D01*
X165139428Y-111892071D01*
X166425142Y-111892071D02*
X166425142Y-113106357D01*
X166496571Y-113249214D01*
X166568000Y-113320642D01*
X166710857Y-113392071D01*
X166996571Y-113392071D01*
X167139428Y-113320642D01*
X167210857Y-113249214D01*
X167282285Y-113106357D01*
X167282285Y-111892071D01*
X167782285Y-111892071D02*
X168639428Y-111892071D01*
X168210857Y-113392071D02*
X168210857Y-111892071D01*
D10*
X161528761Y-93162380D02*
X161528761Y-92162380D01*
X162100190Y-93162380D02*
X161671619Y-92590952D01*
X162100190Y-92162380D02*
X161528761Y-92733809D01*
X163100190Y-93067142D02*
X163052571Y-93114761D01*
X162909714Y-93162380D01*
X162814476Y-93162380D01*
X162671619Y-93114761D01*
X162576380Y-93019523D01*
X162528761Y-92924285D01*
X162481142Y-92733809D01*
X162481142Y-92590952D01*
X162528761Y-92400476D01*
X162576380Y-92305238D01*
X162671619Y-92210000D01*
X162814476Y-92162380D01*
X162909714Y-92162380D01*
X163052571Y-92210000D01*
X163100190Y-92257619D01*
X164052571Y-93162380D02*
X163481142Y-93162380D01*
X163766857Y-93162380D02*
X163766857Y-92162380D01*
X163671619Y-92305238D01*
X163576380Y-92400476D01*
X163481142Y-92448095D01*
X164433523Y-92876666D02*
X164909714Y-92876666D01*
X164338285Y-93162380D02*
X164671619Y-92162380D01*
X165004952Y-93162380D01*
X165243047Y-92162380D02*
X165481142Y-93162380D01*
X165671619Y-92448095D01*
X165862095Y-93162380D01*
X166100190Y-92162380D01*
X166338285Y-92162380D02*
X166671619Y-93162380D01*
X167004952Y-92162380D01*
X168481142Y-93114761D02*
X168385904Y-93162380D01*
X168195428Y-93162380D01*
X168100190Y-93114761D01*
X168052571Y-93019523D01*
X168052571Y-92638571D01*
X168100190Y-92543333D01*
X168195428Y-92495714D01*
X168385904Y-92495714D01*
X168481142Y-92543333D01*
X168528761Y-92638571D01*
X168528761Y-92733809D01*
X168052571Y-92829047D01*
X168814476Y-92495714D02*
X169195428Y-92495714D01*
X168957333Y-92162380D02*
X168957333Y-93019523D01*
X169004952Y-93114761D01*
X169100190Y-93162380D01*
X169195428Y-93162380D01*
X170719238Y-93162380D02*
X170719238Y-92638571D01*
X170671619Y-92543333D01*
X170576380Y-92495714D01*
X170385904Y-92495714D01*
X170290666Y-92543333D01*
X170719238Y-93114761D02*
X170624000Y-93162380D01*
X170385904Y-93162380D01*
X170290666Y-93114761D01*
X170243047Y-93019523D01*
X170243047Y-92924285D01*
X170290666Y-92829047D01*
X170385904Y-92781428D01*
X170624000Y-92781428D01*
X170719238Y-92733809D01*
X171338285Y-93162380D02*
X171243047Y-93114761D01*
X171195428Y-93019523D01*
X171195428Y-92162380D01*
X171719238Y-93067142D02*
X171766857Y-93114761D01*
X171719238Y-93162380D01*
X171671619Y-93114761D01*
X171719238Y-93067142D01*
X171719238Y-93162380D01*
%TO.C,U1*%
X137955095Y-88352380D02*
X137955095Y-89161904D01*
X138002714Y-89257142D01*
X138050333Y-89304761D01*
X138145571Y-89352380D01*
X138336047Y-89352380D01*
X138431285Y-89304761D01*
X138478904Y-89257142D01*
X138526523Y-89161904D01*
X138526523Y-88352380D01*
X139526523Y-89352380D02*
X138955095Y-89352380D01*
X139240809Y-89352380D02*
X139240809Y-88352380D01*
X139145571Y-88495238D01*
X139050333Y-88590476D01*
X138955095Y-88638095D01*
%TO.C,J1*%
X162350097Y-106328189D02*
X162922442Y-106328189D01*
X163036911Y-106366345D01*
X163113223Y-106442658D01*
X163151380Y-106557127D01*
X163151380Y-106633440D01*
X163151380Y-105526906D02*
X163151380Y-105984782D01*
X163151380Y-105755844D02*
X162350097Y-105755844D01*
X162464566Y-105832157D01*
X162540878Y-105908469D01*
X162579035Y-105984782D01*
%TO.C,C4*%
X162122142Y-99226666D02*
X162169761Y-99274285D01*
X162217380Y-99417142D01*
X162217380Y-99512380D01*
X162169761Y-99655238D01*
X162074523Y-99750476D01*
X161979285Y-99798095D01*
X161788809Y-99845714D01*
X161645952Y-99845714D01*
X161455476Y-99798095D01*
X161360238Y-99750476D01*
X161265000Y-99655238D01*
X161217380Y-99512380D01*
X161217380Y-99417142D01*
X161265000Y-99274285D01*
X161312619Y-99226666D01*
X161550714Y-98369523D02*
X162217380Y-98369523D01*
X161169761Y-98607619D02*
X161884047Y-98845714D01*
X161884047Y-98226666D01*
%TO.C,J3*%
X156722380Y-86693333D02*
X157436666Y-86693333D01*
X157579523Y-86740952D01*
X157674761Y-86836190D01*
X157722380Y-86979047D01*
X157722380Y-87074285D01*
X156722380Y-86312380D02*
X156722380Y-85693333D01*
X157103333Y-86026666D01*
X157103333Y-85883809D01*
X157150952Y-85788571D01*
X157198571Y-85740952D01*
X157293809Y-85693333D01*
X157531904Y-85693333D01*
X157627142Y-85740952D01*
X157674761Y-85788571D01*
X157722380Y-85883809D01*
X157722380Y-86169523D01*
X157674761Y-86264761D01*
X157627142Y-86312380D01*
%TO.C,C5*%
X158947142Y-99226666D02*
X158994761Y-99274285D01*
X159042380Y-99417142D01*
X159042380Y-99512380D01*
X158994761Y-99655238D01*
X158899523Y-99750476D01*
X158804285Y-99798095D01*
X158613809Y-99845714D01*
X158470952Y-99845714D01*
X158280476Y-99798095D01*
X158185238Y-99750476D01*
X158090000Y-99655238D01*
X158042380Y-99512380D01*
X158042380Y-99417142D01*
X158090000Y-99274285D01*
X158137619Y-99226666D01*
X158042380Y-98321904D02*
X158042380Y-98798095D01*
X158518571Y-98845714D01*
X158470952Y-98798095D01*
X158423333Y-98702857D01*
X158423333Y-98464761D01*
X158470952Y-98369523D01*
X158518571Y-98321904D01*
X158613809Y-98274285D01*
X158851904Y-98274285D01*
X158947142Y-98321904D01*
X158994761Y-98369523D01*
X159042380Y-98464761D01*
X159042380Y-98702857D01*
X158994761Y-98798095D01*
X158947142Y-98845714D01*
%TO.C,J5*%
X167302380Y-96853333D02*
X168016666Y-96853333D01*
X168159523Y-96900952D01*
X168254761Y-96996190D01*
X168302380Y-97139047D01*
X168302380Y-97234285D01*
X167302380Y-95900952D02*
X167302380Y-96377142D01*
X167778571Y-96424761D01*
X167730952Y-96377142D01*
X167683333Y-96281904D01*
X167683333Y-96043809D01*
X167730952Y-95948571D01*
X167778571Y-95900952D01*
X167873809Y-95853333D01*
X168111904Y-95853333D01*
X168207142Y-95900952D01*
X168254761Y-95948571D01*
X168302380Y-96043809D01*
X168302380Y-96281904D01*
X168254761Y-96377142D01*
X168207142Y-96424761D01*
%TO.C,J2*%
X146562380Y-112093333D02*
X147276666Y-112093333D01*
X147419523Y-112140952D01*
X147514761Y-112236190D01*
X147562380Y-112379047D01*
X147562380Y-112474285D01*
X146657619Y-111664761D02*
X146610000Y-111617142D01*
X146562380Y-111521904D01*
X146562380Y-111283809D01*
X146610000Y-111188571D01*
X146657619Y-111140952D01*
X146752857Y-111093333D01*
X146848095Y-111093333D01*
X146990952Y-111140952D01*
X147562380Y-111712380D01*
X147562380Y-111093333D01*
%TO.C,J6*%
X126666666Y-88352380D02*
X126666666Y-89066666D01*
X126619047Y-89209523D01*
X126523809Y-89304761D01*
X126380952Y-89352380D01*
X126285714Y-89352380D01*
X127571428Y-88352380D02*
X127380952Y-88352380D01*
X127285714Y-88400000D01*
X127238095Y-88447619D01*
X127142857Y-88590476D01*
X127095238Y-88780952D01*
X127095238Y-89161904D01*
X127142857Y-89257142D01*
X127190476Y-89304761D01*
X127285714Y-89352380D01*
X127476190Y-89352380D01*
X127571428Y-89304761D01*
X127619047Y-89257142D01*
X127666666Y-89161904D01*
X127666666Y-88923809D01*
X127619047Y-88828571D01*
X127571428Y-88780952D01*
X127476190Y-88733333D01*
X127285714Y-88733333D01*
X127190476Y-88780952D01*
X127142857Y-88828571D01*
X127095238Y-88923809D01*
%TO.C,C3*%
X165297142Y-99226666D02*
X165344761Y-99274285D01*
X165392380Y-99417142D01*
X165392380Y-99512380D01*
X165344761Y-99655238D01*
X165249523Y-99750476D01*
X165154285Y-99798095D01*
X164963809Y-99845714D01*
X164820952Y-99845714D01*
X164630476Y-99798095D01*
X164535238Y-99750476D01*
X164440000Y-99655238D01*
X164392380Y-99512380D01*
X164392380Y-99417142D01*
X164440000Y-99274285D01*
X164487619Y-99226666D01*
X164392380Y-98893333D02*
X164392380Y-98274285D01*
X164773333Y-98607619D01*
X164773333Y-98464761D01*
X164820952Y-98369523D01*
X164868571Y-98321904D01*
X164963809Y-98274285D01*
X165201904Y-98274285D01*
X165297142Y-98321904D01*
X165344761Y-98369523D01*
X165392380Y-98464761D01*
X165392380Y-98750476D01*
X165344761Y-98845714D01*
X165297142Y-98893333D01*
%TO.C,J4*%
X146562380Y-86693333D02*
X147276666Y-86693333D01*
X147419523Y-86740952D01*
X147514761Y-86836190D01*
X147562380Y-86979047D01*
X147562380Y-87074285D01*
X146895714Y-85788571D02*
X147562380Y-85788571D01*
X146514761Y-86026666D02*
X147229047Y-86264761D01*
X147229047Y-85645714D01*
D12*
%TO.C,U1*%
X156417000Y-90129000D02*
X156417000Y-91129000D01*
X121017000Y-108129000D02*
X121017000Y-107129000D01*
X156417000Y-108129000D02*
X156417000Y-107129000D01*
X121017000Y-90129000D02*
X121017000Y-91129000D01*
X121017000Y-90129000D02*
X156417000Y-90129000D01*
X156417000Y-108129000D02*
X121017000Y-108129000D01*
X136017000Y-94929000D02*
X147717000Y-94929000D01*
X147717000Y-94929000D02*
X147717000Y-99829000D01*
X147717000Y-99829000D02*
X136017000Y-99829000D01*
X136017000Y-99829000D02*
X136017000Y-94929000D01*
D13*
X157427277Y-108629000D02*
G75*
G03*
X157427277Y-108629000I-210277J0D01*
G01*
D14*
%TO.C,J1*%
X161777200Y-104821200D02*
X161777200Y-107421200D01*
X159177200Y-107421200D02*
X159177200Y-106791200D01*
X159177200Y-104821200D02*
X159177200Y-105451200D01*
D12*
%TO.C,C4*%
X162685000Y-99206267D02*
X162685000Y-98913733D01*
X163705000Y-99206267D02*
X163705000Y-98913733D01*
%TO.C,J3*%
X154940000Y-85030000D02*
X156270000Y-85030000D01*
X153670000Y-85030000D02*
X153670000Y-87690000D01*
X153670000Y-85030000D02*
X148530000Y-85030000D01*
X148530000Y-85030000D02*
X148530000Y-87690000D01*
X153670000Y-87690000D02*
X148530000Y-87690000D01*
X156270000Y-85030000D02*
X156270000Y-86360000D01*
%TO.C,C5*%
X159510000Y-99206267D02*
X159510000Y-98913733D01*
X160530000Y-99206267D02*
X160530000Y-98913733D01*
%TO.C,J5*%
X168850000Y-97850000D02*
X168850000Y-96520000D01*
X171450000Y-97850000D02*
X171450000Y-95190000D01*
X171450000Y-97850000D02*
X174050000Y-97850000D01*
X170180000Y-97850000D02*
X168850000Y-97850000D01*
X174050000Y-97850000D02*
X174050000Y-95190000D01*
X171450000Y-95190000D02*
X174050000Y-95190000D01*
%TO.C,G1*%
G36*
X164159130Y-85134489D02*
G01*
X164161108Y-85188299D01*
X164163071Y-85275039D01*
X164164996Y-85392231D01*
X164166858Y-85537400D01*
X164168634Y-85708069D01*
X164170300Y-85901761D01*
X164171833Y-86116000D01*
X164173209Y-86348311D01*
X164174404Y-86596215D01*
X164175395Y-86857237D01*
X164176087Y-87098897D01*
X164180906Y-89082603D01*
X165305464Y-87132044D01*
X165450155Y-86881130D01*
X165589855Y-86638975D01*
X165723367Y-86407647D01*
X165849498Y-86189212D01*
X165967051Y-85985737D01*
X166074831Y-85799289D01*
X166171643Y-85631934D01*
X166256290Y-85485739D01*
X166327579Y-85362771D01*
X166384313Y-85265097D01*
X166425297Y-85194784D01*
X166449336Y-85153897D01*
X166455278Y-85144124D01*
X166458862Y-85143711D01*
X166462103Y-85154715D01*
X166465018Y-85178805D01*
X166467621Y-85217652D01*
X166469931Y-85272926D01*
X166471961Y-85346299D01*
X166473730Y-85439442D01*
X166475252Y-85554023D01*
X166476544Y-85691716D01*
X166477623Y-85854189D01*
X166478503Y-86043113D01*
X166479202Y-86260160D01*
X166479735Y-86507000D01*
X166480118Y-86785304D01*
X166480368Y-87096741D01*
X166480501Y-87442983D01*
X166480534Y-87762730D01*
X166480534Y-90418696D01*
X165799411Y-90418696D01*
X165789699Y-87683738D01*
X164658390Y-89644819D01*
X164513213Y-89896387D01*
X164372995Y-90139181D01*
X164238932Y-90371142D01*
X164112218Y-90590210D01*
X163994048Y-90794326D01*
X163885617Y-90981432D01*
X163788118Y-91149467D01*
X163702747Y-91296372D01*
X163630698Y-91420089D01*
X163573166Y-91518557D01*
X163531345Y-91589718D01*
X163506430Y-91631513D01*
X163499768Y-91642089D01*
X163495357Y-91644393D01*
X163491414Y-91637633D01*
X163487904Y-91619804D01*
X163484795Y-91588903D01*
X163482052Y-91542926D01*
X163479642Y-91479869D01*
X163477532Y-91397727D01*
X163475688Y-91294498D01*
X163474077Y-91168178D01*
X163472664Y-91016761D01*
X163471418Y-90838245D01*
X163470303Y-90630625D01*
X163469287Y-90391897D01*
X163468336Y-90120059D01*
X163467416Y-89813104D01*
X163467068Y-89686600D01*
X163461681Y-87694921D01*
X162761383Y-88908896D01*
X162643860Y-89112633D01*
X162528825Y-89312073D01*
X162418150Y-89503970D01*
X162313708Y-89685077D01*
X162217371Y-89852145D01*
X162131012Y-90001929D01*
X162056502Y-90131182D01*
X161995713Y-90236655D01*
X161950519Y-90315104D01*
X161927288Y-90355460D01*
X161793490Y-90588048D01*
X161501431Y-90419160D01*
X161407396Y-90363685D01*
X161325944Y-90313536D01*
X161262323Y-90272118D01*
X161221784Y-90242835D01*
X161209371Y-90229748D01*
X161218638Y-90210927D01*
X161245610Y-90161576D01*
X161289049Y-90083848D01*
X161347713Y-89979894D01*
X161420363Y-89851864D01*
X161505758Y-89701911D01*
X161602659Y-89532185D01*
X161709824Y-89344839D01*
X161826015Y-89142024D01*
X161949989Y-88925890D01*
X162080509Y-88698590D01*
X162216332Y-88462275D01*
X162356220Y-88219097D01*
X162498932Y-87971206D01*
X162643227Y-87720754D01*
X162787865Y-87469893D01*
X162931607Y-87220773D01*
X163073212Y-86975547D01*
X163211440Y-86736366D01*
X163345051Y-86505381D01*
X163472804Y-86284744D01*
X163593460Y-86076606D01*
X163705777Y-85883118D01*
X163808517Y-85706432D01*
X163900438Y-85548700D01*
X163980301Y-85412072D01*
X164046866Y-85298700D01*
X164098891Y-85210736D01*
X164135138Y-85150331D01*
X164154365Y-85119636D01*
X164157160Y-85116085D01*
X164159130Y-85134489D01*
G37*
G36*
X171366196Y-86043388D02*
G01*
X171584505Y-86043627D01*
X171788588Y-86044010D01*
X171975540Y-86044523D01*
X172142452Y-86045154D01*
X172286420Y-86045889D01*
X172404536Y-86046716D01*
X172493893Y-86047621D01*
X172551585Y-86048592D01*
X172574705Y-86049615D01*
X172575019Y-86049750D01*
X172565761Y-86066772D01*
X172538866Y-86114297D01*
X172495653Y-86190039D01*
X172437442Y-86291710D01*
X172365551Y-86417025D01*
X172281300Y-86563696D01*
X172186008Y-86729436D01*
X172080994Y-86911958D01*
X171967577Y-87108977D01*
X171847076Y-87318204D01*
X171720812Y-87537354D01*
X171590102Y-87764140D01*
X171456266Y-87996274D01*
X171320623Y-88231470D01*
X171184492Y-88467441D01*
X171049193Y-88701900D01*
X170916044Y-88932561D01*
X170786365Y-89157137D01*
X170661475Y-89373341D01*
X170542693Y-89578887D01*
X170431338Y-89771486D01*
X170328730Y-89948854D01*
X170236188Y-90108702D01*
X170155030Y-90248744D01*
X170086576Y-90366694D01*
X170032145Y-90460264D01*
X169993057Y-90527168D01*
X169970630Y-90565119D01*
X169965592Y-90573199D01*
X169946140Y-90568263D01*
X169899817Y-90546741D01*
X169832220Y-90511522D01*
X169748947Y-90465495D01*
X169679192Y-90425398D01*
X169586522Y-90371278D01*
X169504469Y-90323341D01*
X169438974Y-90285059D01*
X169395977Y-90259903D01*
X169382308Y-90251882D01*
X169387089Y-90234099D01*
X169410099Y-90185695D01*
X169451452Y-90106466D01*
X169511263Y-89996207D01*
X169589646Y-89854714D01*
X169686716Y-89681782D01*
X169802587Y-89477209D01*
X169937373Y-89240789D01*
X170091188Y-88972319D01*
X170264148Y-88671593D01*
X170370788Y-88486633D01*
X171381711Y-86734655D01*
X170539915Y-86729724D01*
X169698119Y-86724794D01*
X169698119Y-86043305D01*
X171136569Y-86043305D01*
X171366196Y-86043388D01*
G37*
G36*
X168793601Y-85141795D02*
G01*
X168795828Y-85194500D01*
X168797906Y-85282363D01*
X168799826Y-85404020D01*
X168801581Y-85558110D01*
X168803159Y-85743270D01*
X168804554Y-85958137D01*
X168805755Y-86201350D01*
X168806754Y-86471545D01*
X168807543Y-86767361D01*
X168808111Y-87087436D01*
X168808450Y-87430405D01*
X168808551Y-87763156D01*
X168808551Y-90418696D01*
X168127428Y-90418696D01*
X168122572Y-89044714D01*
X168117717Y-87670732D01*
X167862203Y-88116702D01*
X167794282Y-88233874D01*
X167731727Y-88339177D01*
X167677150Y-88428419D01*
X167633166Y-88497408D01*
X167602387Y-88541953D01*
X167587427Y-88557862D01*
X167587162Y-88557836D01*
X167560750Y-88545988D01*
X167510283Y-88519045D01*
X167442180Y-88480805D01*
X167362860Y-88435071D01*
X167278741Y-88385642D01*
X167196241Y-88336317D01*
X167121779Y-88290899D01*
X167061773Y-88253186D01*
X167022642Y-88226979D01*
X167010572Y-88216449D01*
X167019787Y-88198321D01*
X167046390Y-88150200D01*
X167088780Y-88074865D01*
X167145356Y-87975095D01*
X167214518Y-87853669D01*
X167294665Y-87713364D01*
X167384196Y-87556961D01*
X167481509Y-87387236D01*
X167585005Y-87206970D01*
X167693083Y-87018941D01*
X167804141Y-86825926D01*
X167916579Y-86630706D01*
X168028796Y-86436059D01*
X168139192Y-86244762D01*
X168246165Y-86059596D01*
X168348114Y-85883338D01*
X168443440Y-85718767D01*
X168530540Y-85568663D01*
X168607815Y-85435802D01*
X168673663Y-85322965D01*
X168726484Y-85232930D01*
X168764677Y-85168475D01*
X168786641Y-85132380D01*
X168791235Y-85125609D01*
X168793601Y-85141795D01*
G37*
%TO.C,J2*%
X143510000Y-110430000D02*
X143510000Y-113090000D01*
X146110000Y-110430000D02*
X146110000Y-111760000D01*
X143510000Y-113090000D02*
X133290000Y-113090000D01*
X143510000Y-110430000D02*
X133290000Y-110430000D01*
X133290000Y-110430000D02*
X133290000Y-113090000D01*
X144780000Y-110430000D02*
X146110000Y-110430000D01*
%TO.C,J6*%
X125790000Y-85030000D02*
X125790000Y-86360000D01*
X123190000Y-87690000D02*
X120590000Y-87690000D01*
X123190000Y-85030000D02*
X123190000Y-87690000D01*
X124460000Y-85030000D02*
X125790000Y-85030000D01*
X123190000Y-85030000D02*
X120590000Y-85030000D01*
X120590000Y-85030000D02*
X120590000Y-87690000D01*
%TO.C,C3*%
X166880000Y-99206267D02*
X166880000Y-98913733D01*
X165860000Y-99206267D02*
X165860000Y-98913733D01*
%TO.C,J4*%
X143510000Y-87690000D02*
X140910000Y-87690000D01*
X140910000Y-85030000D02*
X140910000Y-87690000D01*
X143510000Y-85030000D02*
X140910000Y-85030000D01*
X143510000Y-85030000D02*
X143510000Y-87690000D01*
X144780000Y-85030000D02*
X146110000Y-85030000D01*
X146110000Y-85030000D02*
X146110000Y-86360000D01*
%TD*%
M02*
