%TF.GenerationSoftware,KiCad,Pcbnew,6.0.2+dfsg-1~bpo11+1*%
%TF.CreationDate,2022-03-03T13:43:18-05:00*%
%TF.ProjectId,RFM98PW-433S2_breakout,52464d39-3850-4572-9d34-333353325f62,rev?*%
%TF.SameCoordinates,Original*%
%TF.FileFunction,Copper,L1,Top*%
%TF.FilePolarity,Positive*%
%FSLAX46Y46*%
G04 Gerber Fmt 4.6, Leading zero omitted, Abs format (unit mm)*
G04 Created by KiCad (PCBNEW 6.0.2+dfsg-1~bpo11+1) date 2022-03-03 13:43:18*
%MOMM*%
%LPD*%
G01*
G04 APERTURE LIST*
G04 Aperture macros list*
%AMRoundRect*
0 Rectangle with rounded corners*
0 $1 Rounding radius*
0 $2 $3 $4 $5 $6 $7 $8 $9 X,Y pos of 4 corners*
0 Add a 4 corners polygon primitive as box body*
4,1,4,$2,$3,$4,$5,$6,$7,$8,$9,$2,$3,0*
0 Add four circle primitives for the rounded corners*
1,1,$1+$1,$2,$3*
1,1,$1+$1,$4,$5*
1,1,$1+$1,$6,$7*
1,1,$1+$1,$8,$9*
0 Add four rect primitives between the rounded corners*
20,1,$1+$1,$2,$3,$4,$5,0*
20,1,$1+$1,$4,$5,$6,$7,0*
20,1,$1+$1,$6,$7,$8,$9,0*
20,1,$1+$1,$8,$9,$2,$3,0*%
G04 Aperture macros list end*
%TA.AperFunction,SMDPad,CuDef*%
%ADD10RoundRect,0.300000X-1.100000X-0.300000X1.100000X-0.300000X1.100000X0.300000X-1.100000X0.300000X0*%
%TD*%
%TA.AperFunction,SMDPad,CuDef*%
%ADD11R,11.500000X4.700000*%
%TD*%
%TA.AperFunction,SMDPad,CuDef*%
%ADD12R,2.200000X1.050000*%
%TD*%
%TA.AperFunction,SMDPad,CuDef*%
%ADD13R,1.050000X1.000000*%
%TD*%
%TA.AperFunction,SMDPad,CuDef*%
%ADD14RoundRect,0.237500X0.237500X-0.300000X0.237500X0.300000X-0.237500X0.300000X-0.237500X-0.300000X0*%
%TD*%
%TA.AperFunction,ComponentPad*%
%ADD15R,1.700000X1.700000*%
%TD*%
%TA.AperFunction,ComponentPad*%
%ADD16O,1.700000X1.700000*%
%TD*%
%TA.AperFunction,ViaPad*%
%ADD17C,0.800000*%
%TD*%
%TA.AperFunction,Conductor*%
%ADD18C,0.250000*%
%TD*%
%TA.AperFunction,Conductor*%
%ADD19C,1.000000*%
%TD*%
G04 APERTURE END LIST*
D10*
%TO.P,U1,1,ANT*%
%TO.N,Net-(J1-Pad2)*%
X156217000Y-106129000D03*
%TO.P,U1,2,GND*%
%TO.N,GND*%
X156217000Y-104129000D03*
%TO.P,U1,3,DIO3*%
%TO.N,RFM_DIO3*%
X156217000Y-102129000D03*
%TO.P,U1,4,DIO4*%
%TO.N,RFM_DIO4*%
X156217000Y-100129000D03*
%TO.P,U1,5,VCC*%
%TO.N,+5V*%
X156217000Y-98129000D03*
%TO.P,U1,6,DIO0*%
%TO.N,RFM_DIO0*%
X156217000Y-96129000D03*
%TO.P,U1,7,DIO1*%
%TO.N,RFM_DIO1*%
X156217000Y-94124683D03*
%TO.P,U1,8,DIO2*%
%TO.N,RFM_DIO2*%
X156217000Y-92127328D03*
%TO.P,U1,9,3V3*%
%TO.N,+3V3*%
X121217000Y-92129000D03*
%TO.P,U1,10,MISO*%
%TO.N,RFM_MISO*%
X121217000Y-94129000D03*
%TO.P,U1,11,MOSI*%
%TO.N,RFM_MOSI*%
X121217000Y-96129000D03*
%TO.P,U1,12,SCK*%
%TO.N,RFM_SCK*%
X121217000Y-98129000D03*
%TO.P,U1,13,NSS*%
%TO.N,RFM_NSS*%
X121217000Y-100129000D03*
%TO.P,U1,14,RESET*%
%TO.N,RFM_RESET*%
X121217000Y-102129000D03*
%TO.P,U1,15,DIO5*%
%TO.N,unconnected-(U1-Pad15)*%
X121217000Y-104129000D03*
%TO.P,U1,16,GND*%
%TO.N,GND*%
X121217000Y-106129000D03*
D11*
%TO.P,U1,17,GND*%
X141867000Y-97379000D03*
%TD*%
D12*
%TO.P,J1,1*%
%TO.N,GND*%
X160477200Y-104646200D03*
D13*
%TO.P,J1,2*%
%TO.N,Net-(J1-Pad2)*%
X158952200Y-106121200D03*
D12*
%TO.P,J1,3*%
%TO.N,GND*%
X160477200Y-107596200D03*
%TD*%
D14*
%TO.P,C4,1*%
%TO.N,GND*%
X163195000Y-99922500D03*
%TO.P,C4,2*%
%TO.N,+5V*%
X163195000Y-98197500D03*
%TD*%
D15*
%TO.P,J3,1,Pin_1*%
%TO.N,RFM_DIO2*%
X154940000Y-86360000D03*
D16*
%TO.P,J3,2,Pin_2*%
%TO.N,RFM_DIO1*%
X152400000Y-86360000D03*
%TO.P,J3,3,Pin_3*%
%TO.N,RFM_DIO0*%
X149860000Y-86360000D03*
%TD*%
D14*
%TO.P,C5,1*%
%TO.N,GND*%
X160020000Y-99922500D03*
%TO.P,C5,2*%
%TO.N,+5V*%
X160020000Y-98197500D03*
%TD*%
D15*
%TO.P,J5,1,Pin_1*%
%TO.N,+5V*%
X170180000Y-96520000D03*
D16*
%TO.P,J5,2,Pin_2*%
%TO.N,GND*%
X172720000Y-96520000D03*
%TD*%
D15*
%TO.P,J2,1,Pin_1*%
%TO.N,RFM_MISO*%
X144780000Y-111760000D03*
D16*
%TO.P,J2,2,Pin_2*%
%TO.N,RFM_MOSI*%
X142240000Y-111760000D03*
%TO.P,J2,3,Pin_3*%
%TO.N,RFM_SCK*%
X139700000Y-111760000D03*
%TO.P,J2,4,Pin_4*%
%TO.N,RFM_NSS*%
X137160000Y-111760000D03*
%TO.P,J2,5,Pin_5*%
%TO.N,RFM_RESET*%
X134620000Y-111760000D03*
%TD*%
D15*
%TO.P,J6,1,Pin_1*%
%TO.N,+3V3*%
X124460000Y-86360000D03*
D16*
%TO.P,J6,2,Pin_2*%
%TO.N,GND*%
X121920000Y-86360000D03*
%TD*%
D14*
%TO.P,C3,1*%
%TO.N,GND*%
X166370000Y-99922500D03*
%TO.P,C3,2*%
%TO.N,+5V*%
X166370000Y-98197500D03*
%TD*%
D15*
%TO.P,J4,1,Pin_1*%
%TO.N,RFM_DIO4*%
X144780000Y-86360000D03*
D16*
%TO.P,J4,2,Pin_2*%
%TO.N,RFM_DIO3*%
X142240000Y-86360000D03*
%TD*%
D17*
%TO.N,GND*%
X143256000Y-97409000D03*
X143256000Y-95631000D03*
X147066000Y-99187000D03*
X136652000Y-95631000D03*
X145161000Y-97409000D03*
X138684000Y-97409000D03*
X143256000Y-99187000D03*
X136652000Y-99187000D03*
X140843000Y-99187000D03*
X136652000Y-97409000D03*
X138717000Y-99129000D03*
X145161000Y-95631000D03*
X147066000Y-97409000D03*
X147066000Y-95631000D03*
X138684000Y-95631000D03*
X145161000Y-99187000D03*
X140843000Y-95631000D03*
X140843000Y-97409000D03*
%TD*%
D18*
%TO.N,+5V*%
X156217000Y-98129000D02*
X156285500Y-98197500D01*
D19*
X166370000Y-98197500D02*
X168047500Y-96520000D01*
X156285500Y-98197500D02*
X160020000Y-98197500D01*
X160020000Y-98197500D02*
X163195000Y-98197500D01*
X163195000Y-98197500D02*
X166370000Y-98197500D01*
X168047500Y-96520000D02*
X170180000Y-96520000D01*
D18*
%TO.N,RFM_RESET*%
X124989000Y-102129000D02*
X134620000Y-111760000D01*
X121217000Y-102129000D02*
X124989000Y-102129000D01*
%TO.N,RFM_NSS*%
X121217000Y-100129000D02*
X125529000Y-100129000D01*
X125529000Y-100129000D02*
X137160000Y-111760000D01*
%TO.N,RFM_SCK*%
X121217000Y-98129000D02*
X126069000Y-98129000D01*
X126069000Y-98129000D02*
X139700000Y-111760000D01*
%TO.N,RFM_MOSI*%
X121217000Y-96129000D02*
X126609000Y-96129000D01*
X126609000Y-96129000D02*
X142240000Y-111760000D01*
%TO.N,RFM_MISO*%
X121217000Y-94129000D02*
X127149000Y-94129000D01*
X127149000Y-94129000D02*
X144780000Y-111760000D01*
%TO.N,RFM_DIO2*%
X154940000Y-90850328D02*
X154940000Y-86360000D01*
X156217000Y-92127328D02*
X154940000Y-90850328D01*
%TO.N,RFM_DIO1*%
X156217000Y-94124683D02*
X154068683Y-94124683D01*
X154068683Y-94124683D02*
X152400000Y-92456000D01*
X152400000Y-92456000D02*
X152400000Y-86360000D01*
%TO.N,RFM_DIO0*%
X156217000Y-96129000D02*
X153787000Y-96129000D01*
X149860000Y-92202000D02*
X149860000Y-86360000D01*
X153787000Y-96129000D02*
X149860000Y-92202000D01*
%TO.N,RFM_DIO4*%
X153162000Y-99314000D02*
X153162000Y-97536000D01*
X153162000Y-97536000D02*
X144780000Y-89154000D01*
X156217000Y-100129000D02*
X153977000Y-100129000D01*
X144780000Y-89154000D02*
X144780000Y-86360000D01*
X153977000Y-100129000D02*
X153162000Y-99314000D01*
%TO.N,RFM_DIO3*%
X154199000Y-102129000D02*
X151638000Y-99568000D01*
X151638000Y-99568000D02*
X151638000Y-97663718D01*
X156217000Y-102129000D02*
X154199000Y-102129000D01*
X142240000Y-88265718D02*
X142240000Y-86360000D01*
X151638000Y-97663718D02*
X142240000Y-88265718D01*
D19*
%TO.N,+3V3*%
X121217000Y-92129000D02*
X124460000Y-88886000D01*
X124460000Y-88886000D02*
X124460000Y-86360000D01*
D18*
%TO.N,Net-(J1-Pad2)*%
X156217000Y-106129000D02*
X156224800Y-106121200D01*
D19*
X156224800Y-106121200D02*
X158952200Y-106121200D01*
%TD*%
%TA.AperFunction,Conductor*%
%TO.N,GND*%
G36*
X174874321Y-83736002D02*
G01*
X174920814Y-83789658D01*
X174932200Y-83842000D01*
X174932200Y-114024000D01*
X174912198Y-114092121D01*
X174858542Y-114138614D01*
X174806200Y-114150000D01*
X118894000Y-114150000D01*
X118825879Y-114129998D01*
X118779386Y-114076342D01*
X118768000Y-114024000D01*
X118768000Y-103781623D01*
X119616500Y-103781623D01*
X119616501Y-104476376D01*
X119623149Y-104537580D01*
X119673474Y-104671824D01*
X119678854Y-104679003D01*
X119678856Y-104679006D01*
X119754072Y-104779365D01*
X119759454Y-104786546D01*
X119766635Y-104791928D01*
X119866994Y-104867144D01*
X119866997Y-104867146D01*
X119874176Y-104872526D01*
X119963561Y-104906034D01*
X120001025Y-104920079D01*
X120001027Y-104920079D01*
X120008420Y-104922851D01*
X120016270Y-104923704D01*
X120016271Y-104923704D01*
X120066217Y-104929130D01*
X120069623Y-104929500D01*
X121216832Y-104929500D01*
X122364376Y-104929499D01*
X122367770Y-104929130D01*
X122367776Y-104929130D01*
X122417722Y-104923705D01*
X122417726Y-104923704D01*
X122425580Y-104922851D01*
X122559824Y-104872526D01*
X122567003Y-104867146D01*
X122567006Y-104867144D01*
X122667365Y-104791928D01*
X122674546Y-104786546D01*
X122679928Y-104779365D01*
X122755144Y-104679006D01*
X122755146Y-104679003D01*
X122760526Y-104671824D01*
X122810851Y-104537580D01*
X122817500Y-104476377D01*
X122817499Y-103781624D01*
X122810851Y-103720420D01*
X122760526Y-103586176D01*
X122755146Y-103578997D01*
X122755144Y-103578994D01*
X122679928Y-103478635D01*
X122674546Y-103471454D01*
X122667365Y-103466072D01*
X122567006Y-103390856D01*
X122567003Y-103390854D01*
X122559824Y-103385474D01*
X122470439Y-103351966D01*
X122432975Y-103337921D01*
X122432973Y-103337921D01*
X122425580Y-103335149D01*
X122417730Y-103334296D01*
X122417729Y-103334296D01*
X122367774Y-103328869D01*
X122367773Y-103328869D01*
X122364377Y-103328500D01*
X121217168Y-103328500D01*
X120069624Y-103328501D01*
X120066230Y-103328870D01*
X120066224Y-103328870D01*
X120016278Y-103334295D01*
X120016274Y-103334296D01*
X120008420Y-103335149D01*
X119874176Y-103385474D01*
X119866997Y-103390854D01*
X119866994Y-103390856D01*
X119766635Y-103466072D01*
X119759454Y-103471454D01*
X119754072Y-103478635D01*
X119678856Y-103578994D01*
X119678854Y-103578997D01*
X119673474Y-103586176D01*
X119623149Y-103720420D01*
X119616500Y-103781623D01*
X118768000Y-103781623D01*
X118768000Y-101781623D01*
X119616500Y-101781623D01*
X119616501Y-102476376D01*
X119616870Y-102479770D01*
X119616870Y-102479776D01*
X119622126Y-102528158D01*
X119623149Y-102537580D01*
X119673474Y-102671824D01*
X119678854Y-102679003D01*
X119678856Y-102679006D01*
X119754072Y-102779365D01*
X119759454Y-102786546D01*
X119766635Y-102791928D01*
X119866994Y-102867144D01*
X119866997Y-102867146D01*
X119874176Y-102872526D01*
X119963561Y-102906034D01*
X120001025Y-102920079D01*
X120001027Y-102920079D01*
X120008420Y-102922851D01*
X120016270Y-102923704D01*
X120016271Y-102923704D01*
X120066217Y-102929130D01*
X120069623Y-102929500D01*
X121216832Y-102929500D01*
X122364376Y-102929499D01*
X122367770Y-102929130D01*
X122367776Y-102929130D01*
X122417722Y-102923705D01*
X122417726Y-102923704D01*
X122425580Y-102922851D01*
X122559824Y-102872526D01*
X122567003Y-102867146D01*
X122567006Y-102867144D01*
X122667365Y-102791928D01*
X122674546Y-102786546D01*
X122679928Y-102779365D01*
X122755144Y-102679006D01*
X122755146Y-102679003D01*
X122760526Y-102671824D01*
X122810851Y-102537580D01*
X122813802Y-102538686D01*
X122841763Y-102489723D01*
X122904712Y-102456891D01*
X122929144Y-102454500D01*
X124801984Y-102454500D01*
X124870105Y-102474502D01*
X124891079Y-102491405D01*
X133618257Y-111218583D01*
X133652283Y-111280895D01*
X133649264Y-111345776D01*
X133587484Y-111540532D01*
X133586798Y-111546649D01*
X133586797Y-111546653D01*
X133565207Y-111739137D01*
X133564520Y-111745262D01*
X133581759Y-111950553D01*
X133638544Y-112148586D01*
X133641359Y-112154063D01*
X133641360Y-112154066D01*
X133662247Y-112194707D01*
X133732712Y-112331818D01*
X133860677Y-112493270D01*
X134017564Y-112626791D01*
X134197398Y-112727297D01*
X134281280Y-112754552D01*
X134387471Y-112789056D01*
X134387475Y-112789057D01*
X134393329Y-112790959D01*
X134597894Y-112815351D01*
X134604029Y-112814879D01*
X134604031Y-112814879D01*
X134676625Y-112809293D01*
X134803300Y-112799546D01*
X134809230Y-112797890D01*
X134809232Y-112797890D01*
X134995797Y-112745800D01*
X134995796Y-112745800D01*
X135001725Y-112744145D01*
X135007214Y-112741372D01*
X135007220Y-112741370D01*
X135180116Y-112654033D01*
X135185610Y-112651258D01*
X135347951Y-112524424D01*
X135482564Y-112368472D01*
X135503387Y-112331818D01*
X135581276Y-112194707D01*
X135584323Y-112189344D01*
X135649351Y-111993863D01*
X135675171Y-111789474D01*
X135675583Y-111760000D01*
X135655480Y-111554970D01*
X135595935Y-111357749D01*
X135499218Y-111175849D01*
X135425859Y-111085902D01*
X135372906Y-111020975D01*
X135372903Y-111020972D01*
X135369011Y-111016200D01*
X135364262Y-111012271D01*
X135215025Y-110888811D01*
X135215021Y-110888809D01*
X135210275Y-110884882D01*
X135029055Y-110786897D01*
X134832254Y-110725977D01*
X134826129Y-110725333D01*
X134826128Y-110725333D01*
X134633498Y-110705087D01*
X134633496Y-110705087D01*
X134627369Y-110704443D01*
X134540529Y-110712346D01*
X134428342Y-110722555D01*
X134428339Y-110722556D01*
X134422203Y-110723114D01*
X134224572Y-110781280D01*
X134219108Y-110784137D01*
X134214781Y-110785885D01*
X134144128Y-110792860D01*
X134078482Y-110758156D01*
X125233111Y-101912785D01*
X125225684Y-101904681D01*
X125208541Y-101884251D01*
X125208542Y-101884251D01*
X125201455Y-101875806D01*
X125191906Y-101870293D01*
X125168815Y-101856961D01*
X125159544Y-101851055D01*
X125137715Y-101835770D01*
X125128684Y-101829446D01*
X125118034Y-101826592D01*
X125114866Y-101825115D01*
X125111590Y-101823923D01*
X125102045Y-101818412D01*
X125068301Y-101812462D01*
X125064942Y-101811870D01*
X125054215Y-101809492D01*
X125017807Y-101799736D01*
X125006822Y-101800697D01*
X125006820Y-101800697D01*
X124980272Y-101803020D01*
X124969290Y-101803500D01*
X122929144Y-101803500D01*
X122861023Y-101783498D01*
X122814530Y-101729842D01*
X122811243Y-101720273D01*
X122810851Y-101720420D01*
X122763676Y-101594580D01*
X122760526Y-101586176D01*
X122755146Y-101578997D01*
X122755144Y-101578994D01*
X122679928Y-101478635D01*
X122674546Y-101471454D01*
X122667365Y-101466072D01*
X122567006Y-101390856D01*
X122567003Y-101390854D01*
X122559824Y-101385474D01*
X122470439Y-101351966D01*
X122432975Y-101337921D01*
X122432973Y-101337921D01*
X122425580Y-101335149D01*
X122417730Y-101334296D01*
X122417729Y-101334296D01*
X122367774Y-101328869D01*
X122367773Y-101328869D01*
X122364377Y-101328500D01*
X121217168Y-101328500D01*
X120069624Y-101328501D01*
X120066230Y-101328870D01*
X120066224Y-101328870D01*
X120016278Y-101334295D01*
X120016274Y-101334296D01*
X120008420Y-101335149D01*
X119874176Y-101385474D01*
X119866997Y-101390854D01*
X119866994Y-101390856D01*
X119766635Y-101466072D01*
X119759454Y-101471454D01*
X119754072Y-101478635D01*
X119678856Y-101578994D01*
X119678854Y-101578997D01*
X119673474Y-101586176D01*
X119623149Y-101720420D01*
X119616500Y-101781623D01*
X118768000Y-101781623D01*
X118768000Y-99781623D01*
X119616500Y-99781623D01*
X119616501Y-100476376D01*
X119616870Y-100479770D01*
X119616870Y-100479776D01*
X119622126Y-100528158D01*
X119623149Y-100537580D01*
X119673474Y-100671824D01*
X119678854Y-100679003D01*
X119678856Y-100679006D01*
X119754072Y-100779365D01*
X119759454Y-100786546D01*
X119766635Y-100791928D01*
X119866994Y-100867144D01*
X119866997Y-100867146D01*
X119874176Y-100872526D01*
X119963561Y-100906034D01*
X120001025Y-100920079D01*
X120001027Y-100920079D01*
X120008420Y-100922851D01*
X120016270Y-100923704D01*
X120016271Y-100923704D01*
X120066217Y-100929130D01*
X120069623Y-100929500D01*
X121216832Y-100929500D01*
X122364376Y-100929499D01*
X122367770Y-100929130D01*
X122367776Y-100929130D01*
X122417722Y-100923705D01*
X122417726Y-100923704D01*
X122425580Y-100922851D01*
X122559824Y-100872526D01*
X122567003Y-100867146D01*
X122567006Y-100867144D01*
X122667365Y-100791928D01*
X122674546Y-100786546D01*
X122679928Y-100779365D01*
X122755144Y-100679006D01*
X122755146Y-100679003D01*
X122760526Y-100671824D01*
X122810851Y-100537580D01*
X122813802Y-100538686D01*
X122841763Y-100489723D01*
X122904712Y-100456891D01*
X122929144Y-100454500D01*
X125341984Y-100454500D01*
X125410105Y-100474502D01*
X125431079Y-100491405D01*
X136158257Y-111218583D01*
X136192283Y-111280895D01*
X136189264Y-111345776D01*
X136127484Y-111540532D01*
X136126798Y-111546649D01*
X136126797Y-111546653D01*
X136105207Y-111739137D01*
X136104520Y-111745262D01*
X136121759Y-111950553D01*
X136178544Y-112148586D01*
X136181359Y-112154063D01*
X136181360Y-112154066D01*
X136202247Y-112194707D01*
X136272712Y-112331818D01*
X136400677Y-112493270D01*
X136557564Y-112626791D01*
X136737398Y-112727297D01*
X136821280Y-112754552D01*
X136927471Y-112789056D01*
X136927475Y-112789057D01*
X136933329Y-112790959D01*
X137137894Y-112815351D01*
X137144029Y-112814879D01*
X137144031Y-112814879D01*
X137216625Y-112809293D01*
X137343300Y-112799546D01*
X137349230Y-112797890D01*
X137349232Y-112797890D01*
X137535797Y-112745800D01*
X137535796Y-112745800D01*
X137541725Y-112744145D01*
X137547214Y-112741372D01*
X137547220Y-112741370D01*
X137720116Y-112654033D01*
X137725610Y-112651258D01*
X137887951Y-112524424D01*
X138022564Y-112368472D01*
X138043387Y-112331818D01*
X138121276Y-112194707D01*
X138124323Y-112189344D01*
X138189351Y-111993863D01*
X138215171Y-111789474D01*
X138215583Y-111760000D01*
X138195480Y-111554970D01*
X138135935Y-111357749D01*
X138039218Y-111175849D01*
X137965859Y-111085902D01*
X137912906Y-111020975D01*
X137912903Y-111020972D01*
X137909011Y-111016200D01*
X137904262Y-111012271D01*
X137755025Y-110888811D01*
X137755021Y-110888809D01*
X137750275Y-110884882D01*
X137569055Y-110786897D01*
X137372254Y-110725977D01*
X137366129Y-110725333D01*
X137366128Y-110725333D01*
X137173498Y-110705087D01*
X137173496Y-110705087D01*
X137167369Y-110704443D01*
X137080529Y-110712346D01*
X136968342Y-110722555D01*
X136968339Y-110722556D01*
X136962203Y-110723114D01*
X136764572Y-110781280D01*
X136759108Y-110784137D01*
X136754781Y-110785885D01*
X136684128Y-110792860D01*
X136618482Y-110758156D01*
X125773111Y-99912785D01*
X125765684Y-99904681D01*
X125748541Y-99884251D01*
X125748542Y-99884251D01*
X125741455Y-99875806D01*
X125731906Y-99870293D01*
X125708815Y-99856961D01*
X125699544Y-99851055D01*
X125677715Y-99835770D01*
X125668684Y-99829446D01*
X125658034Y-99826592D01*
X125654866Y-99825115D01*
X125651590Y-99823923D01*
X125642045Y-99818412D01*
X125608301Y-99812462D01*
X125604942Y-99811870D01*
X125594215Y-99809492D01*
X125557807Y-99799736D01*
X125546822Y-99800697D01*
X125546820Y-99800697D01*
X125520272Y-99803020D01*
X125509290Y-99803500D01*
X122929144Y-99803500D01*
X122861023Y-99783498D01*
X122814530Y-99729842D01*
X122811243Y-99720273D01*
X122810851Y-99720420D01*
X122806077Y-99707684D01*
X122760526Y-99586176D01*
X122755146Y-99578997D01*
X122755144Y-99578994D01*
X122679928Y-99478635D01*
X122674546Y-99471454D01*
X122632093Y-99439637D01*
X122567006Y-99390856D01*
X122567003Y-99390854D01*
X122559824Y-99385474D01*
X122446008Y-99342807D01*
X122432975Y-99337921D01*
X122432973Y-99337921D01*
X122425580Y-99335149D01*
X122417730Y-99334296D01*
X122417729Y-99334296D01*
X122367774Y-99328869D01*
X122367773Y-99328869D01*
X122364377Y-99328500D01*
X121217168Y-99328500D01*
X120069624Y-99328501D01*
X120066230Y-99328870D01*
X120066224Y-99328870D01*
X120016278Y-99334295D01*
X120016274Y-99334296D01*
X120008420Y-99335149D01*
X119874176Y-99385474D01*
X119866997Y-99390854D01*
X119866994Y-99390856D01*
X119801907Y-99439637D01*
X119759454Y-99471454D01*
X119754072Y-99478635D01*
X119678856Y-99578994D01*
X119678854Y-99578997D01*
X119673474Y-99586176D01*
X119623149Y-99720420D01*
X119616500Y-99781623D01*
X118768000Y-99781623D01*
X118768000Y-97781623D01*
X119616500Y-97781623D01*
X119616501Y-98476376D01*
X119616870Y-98479770D01*
X119616870Y-98479776D01*
X119620442Y-98512656D01*
X119623149Y-98537580D01*
X119673474Y-98671824D01*
X119678854Y-98679003D01*
X119678856Y-98679006D01*
X119691502Y-98695879D01*
X119759454Y-98786546D01*
X119766635Y-98791928D01*
X119866994Y-98867144D01*
X119866997Y-98867146D01*
X119874176Y-98872526D01*
X119942129Y-98898000D01*
X120001025Y-98920079D01*
X120001027Y-98920079D01*
X120008420Y-98922851D01*
X120016270Y-98923704D01*
X120016271Y-98923704D01*
X120066217Y-98929130D01*
X120069623Y-98929500D01*
X121216832Y-98929500D01*
X122364376Y-98929499D01*
X122367770Y-98929130D01*
X122367776Y-98929130D01*
X122417722Y-98923705D01*
X122417726Y-98923704D01*
X122425580Y-98922851D01*
X122559824Y-98872526D01*
X122567003Y-98867146D01*
X122567006Y-98867144D01*
X122667365Y-98791928D01*
X122674546Y-98786546D01*
X122742498Y-98695879D01*
X122755144Y-98679006D01*
X122755146Y-98679003D01*
X122760526Y-98671824D01*
X122810851Y-98537580D01*
X122813802Y-98538686D01*
X122841763Y-98489723D01*
X122904712Y-98456891D01*
X122929144Y-98454500D01*
X125881984Y-98454500D01*
X125950105Y-98474502D01*
X125971079Y-98491405D01*
X138698257Y-111218583D01*
X138732283Y-111280895D01*
X138729264Y-111345776D01*
X138667484Y-111540532D01*
X138666798Y-111546649D01*
X138666797Y-111546653D01*
X138645207Y-111739137D01*
X138644520Y-111745262D01*
X138661759Y-111950553D01*
X138718544Y-112148586D01*
X138721359Y-112154063D01*
X138721360Y-112154066D01*
X138742247Y-112194707D01*
X138812712Y-112331818D01*
X138940677Y-112493270D01*
X139097564Y-112626791D01*
X139277398Y-112727297D01*
X139361280Y-112754552D01*
X139467471Y-112789056D01*
X139467475Y-112789057D01*
X139473329Y-112790959D01*
X139677894Y-112815351D01*
X139684029Y-112814879D01*
X139684031Y-112814879D01*
X139756625Y-112809293D01*
X139883300Y-112799546D01*
X139889230Y-112797890D01*
X139889232Y-112797890D01*
X140075797Y-112745800D01*
X140075796Y-112745800D01*
X140081725Y-112744145D01*
X140087214Y-112741372D01*
X140087220Y-112741370D01*
X140260116Y-112654033D01*
X140265610Y-112651258D01*
X140427951Y-112524424D01*
X140562564Y-112368472D01*
X140583387Y-112331818D01*
X140661276Y-112194707D01*
X140664323Y-112189344D01*
X140729351Y-111993863D01*
X140755171Y-111789474D01*
X140755583Y-111760000D01*
X140735480Y-111554970D01*
X140675935Y-111357749D01*
X140579218Y-111175849D01*
X140505859Y-111085902D01*
X140452906Y-111020975D01*
X140452903Y-111020972D01*
X140449011Y-111016200D01*
X140444262Y-111012271D01*
X140295025Y-110888811D01*
X140295021Y-110888809D01*
X140290275Y-110884882D01*
X140109055Y-110786897D01*
X139912254Y-110725977D01*
X139906129Y-110725333D01*
X139906128Y-110725333D01*
X139713498Y-110705087D01*
X139713496Y-110705087D01*
X139707369Y-110704443D01*
X139620529Y-110712346D01*
X139508342Y-110722555D01*
X139508339Y-110722556D01*
X139502203Y-110723114D01*
X139304572Y-110781280D01*
X139299108Y-110784137D01*
X139294781Y-110785885D01*
X139224128Y-110792860D01*
X139158482Y-110758156D01*
X126313111Y-97912785D01*
X126305684Y-97904681D01*
X126288541Y-97884251D01*
X126288542Y-97884251D01*
X126281455Y-97875806D01*
X126271906Y-97870293D01*
X126248815Y-97856961D01*
X126239544Y-97851055D01*
X126217715Y-97835770D01*
X126208684Y-97829446D01*
X126198034Y-97826592D01*
X126194866Y-97825115D01*
X126191590Y-97823923D01*
X126182045Y-97818412D01*
X126148301Y-97812462D01*
X126144942Y-97811870D01*
X126134215Y-97809492D01*
X126097807Y-97799736D01*
X126086822Y-97800697D01*
X126086820Y-97800697D01*
X126060272Y-97803020D01*
X126049290Y-97803500D01*
X122929144Y-97803500D01*
X122861023Y-97783498D01*
X122814530Y-97729842D01*
X122811243Y-97720273D01*
X122810851Y-97720420D01*
X122801784Y-97696233D01*
X122760526Y-97586176D01*
X122755146Y-97578997D01*
X122755144Y-97578994D01*
X122679928Y-97478635D01*
X122674546Y-97471454D01*
X122665860Y-97464944D01*
X122567006Y-97390856D01*
X122567003Y-97390854D01*
X122559824Y-97385474D01*
X122455859Y-97346500D01*
X122432975Y-97337921D01*
X122432973Y-97337921D01*
X122425580Y-97335149D01*
X122417730Y-97334296D01*
X122417729Y-97334296D01*
X122367774Y-97328869D01*
X122367773Y-97328869D01*
X122364377Y-97328500D01*
X121217168Y-97328500D01*
X120069624Y-97328501D01*
X120066230Y-97328870D01*
X120066224Y-97328870D01*
X120016278Y-97334295D01*
X120016274Y-97334296D01*
X120008420Y-97335149D01*
X119874176Y-97385474D01*
X119866997Y-97390854D01*
X119866994Y-97390856D01*
X119768140Y-97464944D01*
X119759454Y-97471454D01*
X119754072Y-97478635D01*
X119678856Y-97578994D01*
X119678854Y-97578997D01*
X119673474Y-97586176D01*
X119623149Y-97720420D01*
X119616500Y-97781623D01*
X118768000Y-97781623D01*
X118768000Y-95781623D01*
X119616500Y-95781623D01*
X119616501Y-96476376D01*
X119616870Y-96479770D01*
X119616870Y-96479776D01*
X119622126Y-96528158D01*
X119623149Y-96537580D01*
X119673474Y-96671824D01*
X119678854Y-96679003D01*
X119678856Y-96679006D01*
X119754072Y-96779365D01*
X119759454Y-96786546D01*
X119766635Y-96791928D01*
X119866994Y-96867144D01*
X119866997Y-96867146D01*
X119874176Y-96872526D01*
X119963561Y-96906034D01*
X120001025Y-96920079D01*
X120001027Y-96920079D01*
X120008420Y-96922851D01*
X120016270Y-96923704D01*
X120016271Y-96923704D01*
X120066217Y-96929130D01*
X120069623Y-96929500D01*
X121216832Y-96929500D01*
X122364376Y-96929499D01*
X122367770Y-96929130D01*
X122367776Y-96929130D01*
X122417722Y-96923705D01*
X122417726Y-96923704D01*
X122425580Y-96922851D01*
X122559824Y-96872526D01*
X122567003Y-96867146D01*
X122567006Y-96867144D01*
X122667365Y-96791928D01*
X122674546Y-96786546D01*
X122679928Y-96779365D01*
X122755144Y-96679006D01*
X122755146Y-96679003D01*
X122760526Y-96671824D01*
X122810851Y-96537580D01*
X122813802Y-96538686D01*
X122841763Y-96489723D01*
X122904712Y-96456891D01*
X122929144Y-96454500D01*
X126421984Y-96454500D01*
X126490105Y-96474502D01*
X126511079Y-96491405D01*
X141238257Y-111218584D01*
X141272283Y-111280896D01*
X141269264Y-111345776D01*
X141207484Y-111540532D01*
X141206798Y-111546649D01*
X141206797Y-111546653D01*
X141185207Y-111739137D01*
X141184520Y-111745262D01*
X141201759Y-111950553D01*
X141258544Y-112148586D01*
X141261359Y-112154063D01*
X141261360Y-112154066D01*
X141282247Y-112194707D01*
X141352712Y-112331818D01*
X141480677Y-112493270D01*
X141637564Y-112626791D01*
X141817398Y-112727297D01*
X141901280Y-112754552D01*
X142007471Y-112789056D01*
X142007475Y-112789057D01*
X142013329Y-112790959D01*
X142217894Y-112815351D01*
X142224029Y-112814879D01*
X142224031Y-112814879D01*
X142296625Y-112809293D01*
X142423300Y-112799546D01*
X142429230Y-112797890D01*
X142429232Y-112797890D01*
X142615797Y-112745800D01*
X142615796Y-112745800D01*
X142621725Y-112744145D01*
X142627214Y-112741372D01*
X142627220Y-112741370D01*
X142800116Y-112654033D01*
X142805610Y-112651258D01*
X142967951Y-112524424D01*
X143102564Y-112368472D01*
X143123387Y-112331818D01*
X143201276Y-112194707D01*
X143204323Y-112189344D01*
X143269351Y-111993863D01*
X143295171Y-111789474D01*
X143295583Y-111760000D01*
X143275480Y-111554970D01*
X143215935Y-111357749D01*
X143119218Y-111175849D01*
X143045859Y-111085902D01*
X142992906Y-111020975D01*
X142992903Y-111020972D01*
X142989011Y-111016200D01*
X142984262Y-111012271D01*
X142835025Y-110888811D01*
X142835021Y-110888809D01*
X142830275Y-110884882D01*
X142649055Y-110786897D01*
X142452254Y-110725977D01*
X142446129Y-110725333D01*
X142446128Y-110725333D01*
X142253498Y-110705087D01*
X142253496Y-110705087D01*
X142247369Y-110704443D01*
X142160529Y-110712346D01*
X142048342Y-110722555D01*
X142048339Y-110722556D01*
X142042203Y-110723114D01*
X141844572Y-110781280D01*
X141839113Y-110784134D01*
X141834776Y-110785886D01*
X141764123Y-110792858D01*
X141698482Y-110758155D01*
X126853111Y-95912784D01*
X126845686Y-95904682D01*
X126828543Y-95884253D01*
X126828542Y-95884253D01*
X126821455Y-95875806D01*
X126811132Y-95869846D01*
X126788815Y-95856961D01*
X126779544Y-95851055D01*
X126766865Y-95842177D01*
X126748684Y-95829446D01*
X126738034Y-95826592D01*
X126734866Y-95825115D01*
X126731590Y-95823923D01*
X126722045Y-95818412D01*
X126688301Y-95812462D01*
X126684942Y-95811870D01*
X126674215Y-95809492D01*
X126637807Y-95799736D01*
X126626822Y-95800697D01*
X126626820Y-95800697D01*
X126600272Y-95803020D01*
X126589290Y-95803500D01*
X122929144Y-95803500D01*
X122861023Y-95783498D01*
X122814530Y-95729842D01*
X122811243Y-95720273D01*
X122810851Y-95720420D01*
X122786866Y-95656439D01*
X122760526Y-95586176D01*
X122755146Y-95578997D01*
X122755144Y-95578994D01*
X122679928Y-95478635D01*
X122674546Y-95471454D01*
X122667365Y-95466072D01*
X122567006Y-95390856D01*
X122567003Y-95390854D01*
X122559824Y-95385474D01*
X122470439Y-95351966D01*
X122432975Y-95337921D01*
X122432973Y-95337921D01*
X122425580Y-95335149D01*
X122417730Y-95334296D01*
X122417729Y-95334296D01*
X122367774Y-95328869D01*
X122367773Y-95328869D01*
X122364377Y-95328500D01*
X121217168Y-95328500D01*
X120069624Y-95328501D01*
X120066230Y-95328870D01*
X120066224Y-95328870D01*
X120016278Y-95334295D01*
X120016274Y-95334296D01*
X120008420Y-95335149D01*
X119874176Y-95385474D01*
X119866997Y-95390854D01*
X119866994Y-95390856D01*
X119766635Y-95466072D01*
X119759454Y-95471454D01*
X119754072Y-95478635D01*
X119678856Y-95578994D01*
X119678854Y-95578997D01*
X119673474Y-95586176D01*
X119623149Y-95720420D01*
X119616500Y-95781623D01*
X118768000Y-95781623D01*
X118768000Y-93781623D01*
X119616500Y-93781623D01*
X119616501Y-94476376D01*
X119616870Y-94479770D01*
X119616870Y-94479776D01*
X119621657Y-94523841D01*
X119623149Y-94537580D01*
X119673474Y-94671824D01*
X119678854Y-94679003D01*
X119678856Y-94679006D01*
X119750837Y-94775048D01*
X119759454Y-94786546D01*
X119766635Y-94791928D01*
X119866994Y-94867144D01*
X119866997Y-94867146D01*
X119874176Y-94872526D01*
X119963561Y-94906034D01*
X120001025Y-94920079D01*
X120001027Y-94920079D01*
X120008420Y-94922851D01*
X120016270Y-94923704D01*
X120016271Y-94923704D01*
X120066217Y-94929130D01*
X120069623Y-94929500D01*
X121216832Y-94929500D01*
X122364376Y-94929499D01*
X122367770Y-94929130D01*
X122367776Y-94929130D01*
X122417722Y-94923705D01*
X122417726Y-94923704D01*
X122425580Y-94922851D01*
X122559824Y-94872526D01*
X122567003Y-94867146D01*
X122567006Y-94867144D01*
X122667365Y-94791928D01*
X122674546Y-94786546D01*
X122683163Y-94775048D01*
X122755144Y-94679006D01*
X122755146Y-94679003D01*
X122760526Y-94671824D01*
X122810851Y-94537580D01*
X122813802Y-94538686D01*
X122841763Y-94489723D01*
X122904712Y-94456891D01*
X122929144Y-94454500D01*
X126961984Y-94454500D01*
X127030105Y-94474502D01*
X127051079Y-94491405D01*
X143692595Y-111132922D01*
X143726621Y-111195234D01*
X143729500Y-111222017D01*
X143729500Y-112629748D01*
X143730707Y-112635816D01*
X143734331Y-112654033D01*
X143741133Y-112688231D01*
X143785448Y-112754552D01*
X143851769Y-112798867D01*
X143863938Y-112801288D01*
X143863939Y-112801288D01*
X143904184Y-112809293D01*
X143910252Y-112810500D01*
X145649748Y-112810500D01*
X145655816Y-112809293D01*
X145696061Y-112801288D01*
X145696062Y-112801288D01*
X145708231Y-112798867D01*
X145774552Y-112754552D01*
X145818867Y-112688231D01*
X145825670Y-112654033D01*
X145829293Y-112635816D01*
X145830500Y-112629748D01*
X145830500Y-110890252D01*
X145818867Y-110831769D01*
X145774552Y-110765448D01*
X145708231Y-110721133D01*
X145696062Y-110718712D01*
X145696061Y-110718712D01*
X145655816Y-110710707D01*
X145649748Y-110709500D01*
X144242017Y-110709500D01*
X144173896Y-110689498D01*
X144152922Y-110672595D01*
X139261950Y-105781623D01*
X154616500Y-105781623D01*
X154616501Y-106476376D01*
X154623149Y-106537580D01*
X154673474Y-106671824D01*
X154678854Y-106679003D01*
X154678856Y-106679006D01*
X154754072Y-106779365D01*
X154759454Y-106786546D01*
X154766635Y-106791928D01*
X154866994Y-106867144D01*
X154866997Y-106867146D01*
X154874176Y-106872526D01*
X154963561Y-106906034D01*
X155001025Y-106920079D01*
X155001027Y-106920079D01*
X155008420Y-106922851D01*
X155016270Y-106923704D01*
X155016271Y-106923704D01*
X155066217Y-106929130D01*
X155069623Y-106929500D01*
X156216832Y-106929500D01*
X157364376Y-106929499D01*
X157367770Y-106929130D01*
X157367776Y-106929130D01*
X157417722Y-106923705D01*
X157417726Y-106923704D01*
X157425580Y-106922851D01*
X157559824Y-106872526D01*
X157567003Y-106867146D01*
X157567006Y-106867144D01*
X157594051Y-106846874D01*
X157660558Y-106822026D01*
X157669617Y-106821700D01*
X159351030Y-106821700D01*
X159419151Y-106841702D01*
X159465644Y-106895358D01*
X159477030Y-106947700D01*
X159477030Y-107071200D01*
X161577200Y-107071200D01*
X161577200Y-105171042D01*
X159477030Y-105171042D01*
X159477030Y-105294700D01*
X159457028Y-105362821D01*
X159403372Y-105409314D01*
X159351030Y-105420700D01*
X157648801Y-105420700D01*
X157580680Y-105400698D01*
X157573235Y-105395525D01*
X157559824Y-105385474D01*
X157470439Y-105351966D01*
X157432975Y-105337921D01*
X157432973Y-105337921D01*
X157425580Y-105335149D01*
X157417730Y-105334296D01*
X157417729Y-105334296D01*
X157367774Y-105328869D01*
X157367773Y-105328869D01*
X157364377Y-105328500D01*
X156217168Y-105328500D01*
X155069624Y-105328501D01*
X155066230Y-105328870D01*
X155066224Y-105328870D01*
X155016278Y-105334295D01*
X155016274Y-105334296D01*
X155008420Y-105335149D01*
X154874176Y-105385474D01*
X154866997Y-105390854D01*
X154866994Y-105390856D01*
X154827174Y-105420700D01*
X154759454Y-105471454D01*
X154754072Y-105478635D01*
X154678856Y-105578994D01*
X154678854Y-105578997D01*
X154673474Y-105586176D01*
X154623149Y-105720420D01*
X154616500Y-105781623D01*
X139261950Y-105781623D01*
X127393111Y-93912785D01*
X127385684Y-93904681D01*
X127368541Y-93884251D01*
X127368542Y-93884251D01*
X127361455Y-93875806D01*
X127351906Y-93870293D01*
X127328815Y-93856961D01*
X127319544Y-93851055D01*
X127297715Y-93835770D01*
X127288684Y-93829446D01*
X127278034Y-93826592D01*
X127274866Y-93825115D01*
X127271590Y-93823923D01*
X127262045Y-93818412D01*
X127228301Y-93812462D01*
X127224942Y-93811870D01*
X127214215Y-93809492D01*
X127177807Y-93799736D01*
X127166822Y-93800697D01*
X127166820Y-93800697D01*
X127140272Y-93803020D01*
X127129290Y-93803500D01*
X122929144Y-93803500D01*
X122861023Y-93783498D01*
X122814530Y-93729842D01*
X122811243Y-93720273D01*
X122810851Y-93720420D01*
X122763676Y-93594580D01*
X122760526Y-93586176D01*
X122755146Y-93578997D01*
X122755144Y-93578994D01*
X122679928Y-93478635D01*
X122674546Y-93471454D01*
X122661605Y-93461755D01*
X122567006Y-93390856D01*
X122567003Y-93390854D01*
X122559824Y-93385474D01*
X122470439Y-93351966D01*
X122432975Y-93337921D01*
X122432973Y-93337921D01*
X122425580Y-93335149D01*
X122417730Y-93334296D01*
X122417729Y-93334296D01*
X122367774Y-93328869D01*
X122367773Y-93328869D01*
X122364377Y-93328500D01*
X121217168Y-93328500D01*
X120069624Y-93328501D01*
X120066230Y-93328870D01*
X120066224Y-93328870D01*
X120016278Y-93334295D01*
X120016274Y-93334296D01*
X120008420Y-93335149D01*
X119874176Y-93385474D01*
X119866997Y-93390854D01*
X119866994Y-93390856D01*
X119772395Y-93461755D01*
X119759454Y-93471454D01*
X119754072Y-93478635D01*
X119678856Y-93578994D01*
X119678854Y-93578997D01*
X119673474Y-93586176D01*
X119623149Y-93720420D01*
X119616500Y-93781623D01*
X118768000Y-93781623D01*
X118768000Y-91781623D01*
X119616500Y-91781623D01*
X119616501Y-92476376D01*
X119616870Y-92479770D01*
X119616870Y-92479776D01*
X119622115Y-92528057D01*
X119623149Y-92537580D01*
X119673474Y-92671824D01*
X119678854Y-92679003D01*
X119678856Y-92679006D01*
X119694674Y-92700111D01*
X119759454Y-92786546D01*
X119766635Y-92791928D01*
X119866994Y-92867144D01*
X119866997Y-92867146D01*
X119874176Y-92872526D01*
X119963561Y-92906034D01*
X120001025Y-92920079D01*
X120001027Y-92920079D01*
X120008420Y-92922851D01*
X120016270Y-92923704D01*
X120016271Y-92923704D01*
X120066217Y-92929130D01*
X120069623Y-92929500D01*
X121216832Y-92929500D01*
X122364376Y-92929499D01*
X122367770Y-92929130D01*
X122367776Y-92929130D01*
X122417722Y-92923705D01*
X122417726Y-92923704D01*
X122425580Y-92922851D01*
X122559824Y-92872526D01*
X122567003Y-92867146D01*
X122567006Y-92867144D01*
X122667365Y-92791928D01*
X122674546Y-92786546D01*
X122739326Y-92700111D01*
X122755144Y-92679006D01*
X122755146Y-92679003D01*
X122760526Y-92671824D01*
X122794335Y-92581637D01*
X122808079Y-92544975D01*
X122808079Y-92544973D01*
X122810851Y-92537580D01*
X122817500Y-92476377D01*
X122817499Y-91781624D01*
X122817130Y-91778224D01*
X122811705Y-91728278D01*
X122811704Y-91728274D01*
X122810851Y-91720420D01*
X122786263Y-91654830D01*
X122781080Y-91584022D01*
X122815150Y-91521506D01*
X124935075Y-89401582D01*
X124941341Y-89395728D01*
X124978669Y-89363165D01*
X124984396Y-89358169D01*
X125020690Y-89306527D01*
X125024616Y-89301242D01*
X125058895Y-89257524D01*
X125058897Y-89257520D01*
X125063584Y-89251543D01*
X125066710Y-89244620D01*
X125068495Y-89241672D01*
X125075887Y-89228712D01*
X125077520Y-89225666D01*
X125081887Y-89219453D01*
X125104820Y-89160633D01*
X125107376Y-89154554D01*
X125130228Y-89103941D01*
X125133355Y-89097016D01*
X125134740Y-89089545D01*
X125135764Y-89086277D01*
X125139877Y-89071836D01*
X125140717Y-89068563D01*
X125143476Y-89061487D01*
X125151716Y-88998894D01*
X125152748Y-88992377D01*
X125162868Y-88937775D01*
X125164252Y-88930308D01*
X125160709Y-88868856D01*
X125160500Y-88861604D01*
X125160500Y-87536500D01*
X125180502Y-87468379D01*
X125234158Y-87421886D01*
X125286500Y-87410500D01*
X125329748Y-87410500D01*
X125335816Y-87409293D01*
X125376061Y-87401288D01*
X125376062Y-87401288D01*
X125388231Y-87398867D01*
X125454552Y-87354552D01*
X125498867Y-87288231D01*
X125510500Y-87229748D01*
X125510500Y-86345262D01*
X141184520Y-86345262D01*
X141201759Y-86550553D01*
X141258544Y-86748586D01*
X141261359Y-86754063D01*
X141261360Y-86754066D01*
X141282247Y-86794707D01*
X141352712Y-86931818D01*
X141480677Y-87093270D01*
X141637564Y-87226791D01*
X141817398Y-87327297D01*
X141823255Y-87329200D01*
X141827441Y-87330560D01*
X141886045Y-87370636D01*
X141913679Y-87436034D01*
X141914500Y-87450392D01*
X141914500Y-88246008D01*
X141914020Y-88256990D01*
X141910736Y-88294525D01*
X141913590Y-88305174D01*
X141920491Y-88330928D01*
X141922870Y-88341660D01*
X141929412Y-88378763D01*
X141934923Y-88388308D01*
X141936115Y-88391584D01*
X141937592Y-88394752D01*
X141940446Y-88405402D01*
X141946770Y-88414433D01*
X141962055Y-88436262D01*
X141967961Y-88445533D01*
X141981293Y-88468624D01*
X141986806Y-88478173D01*
X141995251Y-88485259D01*
X142015682Y-88502403D01*
X142023785Y-88509829D01*
X151275595Y-97761639D01*
X151309621Y-97823951D01*
X151312500Y-97850734D01*
X151312500Y-99548290D01*
X151312020Y-99559272D01*
X151308736Y-99596807D01*
X151311590Y-99607456D01*
X151318491Y-99633210D01*
X151320870Y-99643942D01*
X151327412Y-99681045D01*
X151332923Y-99690590D01*
X151334115Y-99693866D01*
X151335592Y-99697034D01*
X151338446Y-99707684D01*
X151353962Y-99729842D01*
X151360055Y-99738544D01*
X151365961Y-99747815D01*
X151376804Y-99766595D01*
X151384806Y-99780455D01*
X151393251Y-99787541D01*
X151413682Y-99804685D01*
X151421785Y-99812111D01*
X153954889Y-102345215D01*
X153962316Y-102353319D01*
X153986545Y-102382194D01*
X153996094Y-102387707D01*
X154019185Y-102401039D01*
X154028456Y-102406945D01*
X154059316Y-102428554D01*
X154069966Y-102431408D01*
X154073134Y-102432885D01*
X154076410Y-102434077D01*
X154085955Y-102439588D01*
X154119699Y-102445538D01*
X154123058Y-102446130D01*
X154133785Y-102448508D01*
X154170193Y-102458264D01*
X154181178Y-102457303D01*
X154181180Y-102457303D01*
X154207728Y-102454980D01*
X154218710Y-102454500D01*
X154504856Y-102454500D01*
X154572977Y-102474502D01*
X154619470Y-102528158D01*
X154622757Y-102537727D01*
X154623149Y-102537580D01*
X154673474Y-102671824D01*
X154678854Y-102679003D01*
X154678856Y-102679006D01*
X154754072Y-102779365D01*
X154759454Y-102786546D01*
X154766635Y-102791928D01*
X154866994Y-102867144D01*
X154866997Y-102867146D01*
X154874176Y-102872526D01*
X154963561Y-102906034D01*
X155001025Y-102920079D01*
X155001027Y-102920079D01*
X155008420Y-102922851D01*
X155016270Y-102923704D01*
X155016271Y-102923704D01*
X155066217Y-102929130D01*
X155069623Y-102929500D01*
X156216832Y-102929500D01*
X157364376Y-102929499D01*
X157367770Y-102929130D01*
X157367776Y-102929130D01*
X157417722Y-102923705D01*
X157417726Y-102923704D01*
X157425580Y-102922851D01*
X157559824Y-102872526D01*
X157567003Y-102867146D01*
X157567006Y-102867144D01*
X157667365Y-102791928D01*
X157674546Y-102786546D01*
X157679928Y-102779365D01*
X157755144Y-102679006D01*
X157755146Y-102679003D01*
X157760526Y-102671824D01*
X157810851Y-102537580D01*
X157817500Y-102476377D01*
X157817499Y-101781624D01*
X157817130Y-101778224D01*
X157811705Y-101728278D01*
X157811704Y-101728274D01*
X157810851Y-101720420D01*
X157760526Y-101586176D01*
X157755146Y-101578997D01*
X157755144Y-101578994D01*
X157679928Y-101478635D01*
X157674546Y-101471454D01*
X157667365Y-101466072D01*
X157567006Y-101390856D01*
X157567003Y-101390854D01*
X157559824Y-101385474D01*
X157470439Y-101351966D01*
X157432975Y-101337921D01*
X157432973Y-101337921D01*
X157425580Y-101335149D01*
X157417730Y-101334296D01*
X157417729Y-101334296D01*
X157367774Y-101328869D01*
X157367773Y-101328869D01*
X157364377Y-101328500D01*
X156217168Y-101328500D01*
X155069624Y-101328501D01*
X155066230Y-101328870D01*
X155066224Y-101328870D01*
X155016278Y-101334295D01*
X155016274Y-101334296D01*
X155008420Y-101335149D01*
X154874176Y-101385474D01*
X154866997Y-101390854D01*
X154866994Y-101390856D01*
X154766635Y-101466072D01*
X154759454Y-101471454D01*
X154754072Y-101478635D01*
X154678856Y-101578994D01*
X154678854Y-101578997D01*
X154673474Y-101586176D01*
X154623149Y-101720420D01*
X154620198Y-101719314D01*
X154592237Y-101768277D01*
X154529288Y-101801109D01*
X154504856Y-101803500D01*
X154386016Y-101803500D01*
X154317895Y-101783498D01*
X154296921Y-101766595D01*
X152000405Y-99470079D01*
X151966379Y-99407767D01*
X151963500Y-99380984D01*
X151963500Y-97683428D01*
X151963980Y-97672446D01*
X151966303Y-97645898D01*
X151966303Y-97645896D01*
X151967264Y-97634911D01*
X151957508Y-97598503D01*
X151955130Y-97587776D01*
X151953581Y-97578994D01*
X151948588Y-97550673D01*
X151943077Y-97541128D01*
X151941885Y-97537852D01*
X151940408Y-97534684D01*
X151937554Y-97524034D01*
X151915945Y-97493174D01*
X151910039Y-97483903D01*
X151896707Y-97460812D01*
X151891194Y-97451263D01*
X151862317Y-97427033D01*
X151854215Y-97419607D01*
X142602405Y-88167797D01*
X142568379Y-88105485D01*
X142565500Y-88078702D01*
X142565500Y-87450062D01*
X142585502Y-87381941D01*
X142634690Y-87337596D01*
X142800113Y-87254035D01*
X142800115Y-87254034D01*
X142805610Y-87251258D01*
X142833142Y-87229748D01*
X143729500Y-87229748D01*
X143741133Y-87288231D01*
X143785448Y-87354552D01*
X143851769Y-87398867D01*
X143863938Y-87401288D01*
X143863939Y-87401288D01*
X143904184Y-87409293D01*
X143910252Y-87410500D01*
X144328500Y-87410500D01*
X144396621Y-87430502D01*
X144443114Y-87484158D01*
X144454500Y-87536500D01*
X144454500Y-89134290D01*
X144454020Y-89145272D01*
X144452945Y-89157564D01*
X144450736Y-89182807D01*
X144460491Y-89219210D01*
X144462870Y-89229942D01*
X144469412Y-89267045D01*
X144474923Y-89276590D01*
X144476115Y-89279866D01*
X144477592Y-89283034D01*
X144480446Y-89293684D01*
X144489446Y-89306537D01*
X144502055Y-89324544D01*
X144507961Y-89333815D01*
X144518434Y-89351954D01*
X144526806Y-89366455D01*
X144535251Y-89373541D01*
X144555682Y-89390685D01*
X144563785Y-89398111D01*
X152799595Y-97633921D01*
X152833621Y-97696233D01*
X152836500Y-97723016D01*
X152836500Y-99294290D01*
X152836020Y-99305272D01*
X152833988Y-99328501D01*
X152832736Y-99342807D01*
X152835590Y-99353456D01*
X152842491Y-99379210D01*
X152844870Y-99389942D01*
X152851412Y-99427045D01*
X152856923Y-99436590D01*
X152858115Y-99439866D01*
X152859592Y-99443034D01*
X152862446Y-99453684D01*
X152873926Y-99470079D01*
X152884055Y-99484544D01*
X152889961Y-99493815D01*
X152903293Y-99516906D01*
X152908806Y-99526455D01*
X152917251Y-99533541D01*
X152937682Y-99550685D01*
X152945785Y-99558111D01*
X153732889Y-100345215D01*
X153740316Y-100353319D01*
X153764545Y-100382194D01*
X153774094Y-100387707D01*
X153797185Y-100401039D01*
X153806456Y-100406945D01*
X153837316Y-100428554D01*
X153847966Y-100431408D01*
X153851134Y-100432885D01*
X153854410Y-100434077D01*
X153863955Y-100439588D01*
X153897699Y-100445538D01*
X153901058Y-100446130D01*
X153911785Y-100448508D01*
X153948193Y-100458264D01*
X153959178Y-100457303D01*
X153959180Y-100457303D01*
X153985728Y-100454980D01*
X153996710Y-100454500D01*
X154504856Y-100454500D01*
X154572977Y-100474502D01*
X154619470Y-100528158D01*
X154622757Y-100537727D01*
X154623149Y-100537580D01*
X154673474Y-100671824D01*
X154678854Y-100679003D01*
X154678856Y-100679006D01*
X154754072Y-100779365D01*
X154759454Y-100786546D01*
X154766635Y-100791928D01*
X154866994Y-100867144D01*
X154866997Y-100867146D01*
X154874176Y-100872526D01*
X154963561Y-100906034D01*
X155001025Y-100920079D01*
X155001027Y-100920079D01*
X155008420Y-100922851D01*
X155016270Y-100923704D01*
X155016271Y-100923704D01*
X155066217Y-100929130D01*
X155069623Y-100929500D01*
X156216832Y-100929500D01*
X157364376Y-100929499D01*
X157367770Y-100929130D01*
X157367776Y-100929130D01*
X157417722Y-100923705D01*
X157417726Y-100923704D01*
X157425580Y-100922851D01*
X157559824Y-100872526D01*
X157567003Y-100867146D01*
X157567006Y-100867144D01*
X157667365Y-100791928D01*
X157674546Y-100786546D01*
X157679928Y-100779365D01*
X157755144Y-100679006D01*
X157755146Y-100679003D01*
X157760526Y-100671824D01*
X157810851Y-100537580D01*
X157817500Y-100476377D01*
X157817499Y-99781624D01*
X157816335Y-99770906D01*
X157811705Y-99728278D01*
X157811704Y-99728274D01*
X157810851Y-99720420D01*
X157760526Y-99586176D01*
X157755146Y-99578997D01*
X157755144Y-99578994D01*
X157679928Y-99478635D01*
X157674546Y-99471454D01*
X157632093Y-99439637D01*
X157567006Y-99390856D01*
X157567003Y-99390854D01*
X157559824Y-99385474D01*
X157446008Y-99342807D01*
X157432975Y-99337921D01*
X157432973Y-99337921D01*
X157425580Y-99335149D01*
X157417730Y-99334296D01*
X157417729Y-99334296D01*
X157367774Y-99328869D01*
X157367773Y-99328869D01*
X157364377Y-99328500D01*
X156217168Y-99328500D01*
X155069624Y-99328501D01*
X155066230Y-99328870D01*
X155066224Y-99328870D01*
X155016278Y-99334295D01*
X155016274Y-99334296D01*
X155008420Y-99335149D01*
X154874176Y-99385474D01*
X154866997Y-99390854D01*
X154866994Y-99390856D01*
X154801907Y-99439637D01*
X154759454Y-99471454D01*
X154754072Y-99478635D01*
X154678856Y-99578994D01*
X154678854Y-99578997D01*
X154673474Y-99586176D01*
X154623149Y-99720420D01*
X154620198Y-99719314D01*
X154592237Y-99768277D01*
X154529288Y-99801109D01*
X154504856Y-99803500D01*
X154164016Y-99803500D01*
X154095895Y-99783498D01*
X154074921Y-99766595D01*
X153524405Y-99216079D01*
X153490379Y-99153767D01*
X153487500Y-99126984D01*
X153487500Y-97781623D01*
X154616500Y-97781623D01*
X154616501Y-98476376D01*
X154616870Y-98479770D01*
X154616870Y-98479776D01*
X154620442Y-98512656D01*
X154623149Y-98537580D01*
X154673474Y-98671824D01*
X154678854Y-98679003D01*
X154678856Y-98679006D01*
X154691502Y-98695879D01*
X154759454Y-98786546D01*
X154766635Y-98791928D01*
X154866994Y-98867144D01*
X154866997Y-98867146D01*
X154874176Y-98872526D01*
X154942129Y-98898000D01*
X155001025Y-98920079D01*
X155001027Y-98920079D01*
X155008420Y-98922851D01*
X155016270Y-98923704D01*
X155016271Y-98923704D01*
X155066217Y-98929130D01*
X155069623Y-98929500D01*
X156216832Y-98929500D01*
X157364376Y-98929499D01*
X157367770Y-98929130D01*
X157367776Y-98929130D01*
X157417722Y-98923705D01*
X157417726Y-98923704D01*
X157425580Y-98922851D01*
X157470482Y-98906018D01*
X157514712Y-98898000D01*
X159579488Y-98898000D01*
X159621237Y-98905117D01*
X159699500Y-98932601D01*
X159707143Y-98933323D01*
X159707145Y-98933324D01*
X159716944Y-98934250D01*
X159730167Y-98935500D01*
X160019853Y-98935500D01*
X160309832Y-98935499D01*
X160312782Y-98935220D01*
X160312787Y-98935220D01*
X160332851Y-98933324D01*
X160332853Y-98933324D01*
X160340500Y-98932601D01*
X160418763Y-98905117D01*
X160460512Y-98898000D01*
X162754488Y-98898000D01*
X162796237Y-98905117D01*
X162874500Y-98932601D01*
X162882143Y-98933323D01*
X162882145Y-98933324D01*
X162891944Y-98934250D01*
X162905167Y-98935500D01*
X163194853Y-98935500D01*
X163484832Y-98935499D01*
X163487782Y-98935220D01*
X163487787Y-98935220D01*
X163507851Y-98933324D01*
X163507853Y-98933324D01*
X163515500Y-98932601D01*
X163593763Y-98905117D01*
X163635512Y-98898000D01*
X165929488Y-98898000D01*
X165971237Y-98905117D01*
X166049500Y-98932601D01*
X166057143Y-98933323D01*
X166057145Y-98933324D01*
X166066944Y-98934250D01*
X166080167Y-98935500D01*
X166369853Y-98935500D01*
X166659832Y-98935499D01*
X166662782Y-98935220D01*
X166662787Y-98935220D01*
X166682850Y-98933324D01*
X166682851Y-98933324D01*
X166690500Y-98932601D01*
X166697748Y-98930056D01*
X166697751Y-98930055D01*
X166805879Y-98892083D01*
X166805881Y-98892082D01*
X166814768Y-98888961D01*
X166822343Y-98883366D01*
X166822345Y-98883365D01*
X166913140Y-98816303D01*
X166920711Y-98810711D01*
X166998961Y-98704768D01*
X167010531Y-98671824D01*
X167040056Y-98587748D01*
X167040057Y-98587746D01*
X167042601Y-98580500D01*
X167045112Y-98553936D01*
X167071436Y-98488000D01*
X167081458Y-98476698D01*
X168300751Y-97257405D01*
X168363063Y-97223379D01*
X168389846Y-97220500D01*
X169003500Y-97220500D01*
X169071621Y-97240502D01*
X169118114Y-97294158D01*
X169129500Y-97346500D01*
X169129500Y-97389748D01*
X169130707Y-97395816D01*
X169133601Y-97410363D01*
X169141133Y-97448231D01*
X169185448Y-97514552D01*
X169251769Y-97558867D01*
X169263938Y-97561288D01*
X169263939Y-97561288D01*
X169304184Y-97569293D01*
X169310252Y-97570500D01*
X171049748Y-97570500D01*
X171055816Y-97569293D01*
X171096061Y-97561288D01*
X171096062Y-97561288D01*
X171108231Y-97558867D01*
X171174552Y-97514552D01*
X171218867Y-97448231D01*
X171226400Y-97410363D01*
X171229293Y-97395816D01*
X171230500Y-97389748D01*
X171230500Y-95650252D01*
X171218867Y-95591769D01*
X171174552Y-95525448D01*
X171108231Y-95481133D01*
X171096062Y-95478712D01*
X171096061Y-95478712D01*
X171055816Y-95470707D01*
X171049748Y-95469500D01*
X169310252Y-95469500D01*
X169304184Y-95470707D01*
X169263939Y-95478712D01*
X169263938Y-95478712D01*
X169251769Y-95481133D01*
X169185448Y-95525448D01*
X169141133Y-95591769D01*
X169129500Y-95650252D01*
X169129500Y-95693500D01*
X169109498Y-95761621D01*
X169055842Y-95808114D01*
X169003500Y-95819500D01*
X168076137Y-95819500D01*
X168067566Y-95819208D01*
X168010570Y-95815322D01*
X168003094Y-95816627D01*
X168003090Y-95816627D01*
X167948368Y-95826178D01*
X167941842Y-95827141D01*
X167901404Y-95832035D01*
X167879180Y-95834724D01*
X167872073Y-95837409D01*
X167868780Y-95838218D01*
X167854309Y-95842177D01*
X167851033Y-95843166D01*
X167843546Y-95844473D01*
X167836588Y-95847528D01*
X167836586Y-95847528D01*
X167785742Y-95869846D01*
X167779637Y-95872338D01*
X167770460Y-95875806D01*
X167720577Y-95894655D01*
X167714324Y-95898953D01*
X167711293Y-95900537D01*
X167698216Y-95907817D01*
X167695257Y-95909567D01*
X167688297Y-95912622D01*
X167682270Y-95917247D01*
X167682266Y-95917249D01*
X167638200Y-95951062D01*
X167632881Y-95954927D01*
X167580849Y-95990688D01*
X167575792Y-95996364D01*
X167539900Y-96036648D01*
X167534919Y-96041924D01*
X166153300Y-97423543D01*
X166090988Y-97457569D01*
X166076060Y-97459889D01*
X166057149Y-97461676D01*
X166057147Y-97461676D01*
X166049500Y-97462399D01*
X166003267Y-97478635D01*
X165971237Y-97489883D01*
X165929488Y-97497000D01*
X163635512Y-97497000D01*
X163593763Y-97489883D01*
X163541285Y-97471454D01*
X163515500Y-97462399D01*
X163507857Y-97461677D01*
X163507855Y-97461676D01*
X163498056Y-97460750D01*
X163484833Y-97459500D01*
X163195147Y-97459500D01*
X162905168Y-97459501D01*
X162902218Y-97459780D01*
X162902213Y-97459780D01*
X162882149Y-97461676D01*
X162882147Y-97461676D01*
X162874500Y-97462399D01*
X162828267Y-97478635D01*
X162796237Y-97489883D01*
X162754488Y-97497000D01*
X160460512Y-97497000D01*
X160418763Y-97489883D01*
X160366285Y-97471454D01*
X160340500Y-97462399D01*
X160332857Y-97461677D01*
X160332855Y-97461676D01*
X160323056Y-97460750D01*
X160309833Y-97459500D01*
X160020147Y-97459500D01*
X159730168Y-97459501D01*
X159727218Y-97459780D01*
X159727213Y-97459780D01*
X159707149Y-97461676D01*
X159707147Y-97461676D01*
X159699500Y-97462399D01*
X159653267Y-97478635D01*
X159621237Y-97489883D01*
X159579488Y-97497000D01*
X157750483Y-97497000D01*
X157682362Y-97476998D01*
X157674899Y-97470983D01*
X157674546Y-97471454D01*
X157567006Y-97390856D01*
X157567003Y-97390854D01*
X157559824Y-97385474D01*
X157455859Y-97346500D01*
X157432975Y-97337921D01*
X157432973Y-97337921D01*
X157425580Y-97335149D01*
X157417730Y-97334296D01*
X157417729Y-97334296D01*
X157367774Y-97328869D01*
X157367773Y-97328869D01*
X157364377Y-97328500D01*
X156217168Y-97328500D01*
X155069624Y-97328501D01*
X155066230Y-97328870D01*
X155066224Y-97328870D01*
X155016278Y-97334295D01*
X155016274Y-97334296D01*
X155008420Y-97335149D01*
X154874176Y-97385474D01*
X154866997Y-97390854D01*
X154866994Y-97390856D01*
X154768140Y-97464944D01*
X154759454Y-97471454D01*
X154754072Y-97478635D01*
X154678856Y-97578994D01*
X154678854Y-97578997D01*
X154673474Y-97586176D01*
X154623149Y-97720420D01*
X154616500Y-97781623D01*
X153487500Y-97781623D01*
X153487500Y-97555710D01*
X153487980Y-97544728D01*
X153490303Y-97518180D01*
X153490303Y-97518178D01*
X153491264Y-97507193D01*
X153481508Y-97470785D01*
X153479130Y-97460058D01*
X153477579Y-97451263D01*
X153472588Y-97422955D01*
X153467077Y-97413410D01*
X153465885Y-97410134D01*
X153464408Y-97406966D01*
X153461554Y-97396316D01*
X153439945Y-97365456D01*
X153434039Y-97356185D01*
X153420707Y-97333094D01*
X153415194Y-97323545D01*
X153386317Y-97299315D01*
X153378215Y-97291889D01*
X145142405Y-89056079D01*
X145108379Y-88993767D01*
X145105500Y-88966984D01*
X145105500Y-87536500D01*
X145125502Y-87468379D01*
X145179158Y-87421886D01*
X145231500Y-87410500D01*
X145649748Y-87410500D01*
X145655816Y-87409293D01*
X145696061Y-87401288D01*
X145696062Y-87401288D01*
X145708231Y-87398867D01*
X145774552Y-87354552D01*
X145818867Y-87288231D01*
X145830500Y-87229748D01*
X145830500Y-86345262D01*
X148804520Y-86345262D01*
X148821759Y-86550553D01*
X148878544Y-86748586D01*
X148881359Y-86754063D01*
X148881360Y-86754066D01*
X148902247Y-86794707D01*
X148972712Y-86931818D01*
X149100677Y-87093270D01*
X149257564Y-87226791D01*
X149437398Y-87327297D01*
X149443255Y-87329200D01*
X149447441Y-87330560D01*
X149506045Y-87370636D01*
X149533679Y-87436034D01*
X149534500Y-87450392D01*
X149534500Y-92182290D01*
X149534020Y-92193272D01*
X149530736Y-92230807D01*
X149533590Y-92241456D01*
X149540491Y-92267210D01*
X149542870Y-92277942D01*
X149549412Y-92315045D01*
X149554923Y-92324590D01*
X149556115Y-92327866D01*
X149557592Y-92331034D01*
X149560446Y-92341684D01*
X149566770Y-92350715D01*
X149582055Y-92372544D01*
X149587961Y-92381815D01*
X149601293Y-92404906D01*
X149606806Y-92414455D01*
X149615251Y-92421541D01*
X149635682Y-92438685D01*
X149643785Y-92446111D01*
X153542889Y-96345215D01*
X153550316Y-96353319D01*
X153574545Y-96382194D01*
X153584094Y-96387707D01*
X153607185Y-96401039D01*
X153616456Y-96406945D01*
X153647316Y-96428554D01*
X153657966Y-96431408D01*
X153661134Y-96432885D01*
X153664410Y-96434077D01*
X153673955Y-96439588D01*
X153707699Y-96445538D01*
X153711058Y-96446130D01*
X153721785Y-96448508D01*
X153758193Y-96458264D01*
X153769169Y-96457304D01*
X153769172Y-96457304D01*
X153795743Y-96454979D01*
X153806724Y-96454500D01*
X154504856Y-96454500D01*
X154572977Y-96474502D01*
X154619470Y-96528158D01*
X154622757Y-96537727D01*
X154623149Y-96537580D01*
X154673474Y-96671824D01*
X154678854Y-96679003D01*
X154678856Y-96679006D01*
X154754072Y-96779365D01*
X154759454Y-96786546D01*
X154766635Y-96791928D01*
X154866994Y-96867144D01*
X154866997Y-96867146D01*
X154874176Y-96872526D01*
X154963561Y-96906034D01*
X155001025Y-96920079D01*
X155001027Y-96920079D01*
X155008420Y-96922851D01*
X155016270Y-96923704D01*
X155016271Y-96923704D01*
X155066217Y-96929130D01*
X155069623Y-96929500D01*
X156216832Y-96929500D01*
X157364376Y-96929499D01*
X157367770Y-96929130D01*
X157367776Y-96929130D01*
X157417722Y-96923705D01*
X157417726Y-96923704D01*
X157425580Y-96922851D01*
X157559824Y-96872526D01*
X157567003Y-96867146D01*
X157567006Y-96867144D01*
X157667365Y-96791928D01*
X157674546Y-96786546D01*
X157679928Y-96779365D01*
X157755144Y-96679006D01*
X157755146Y-96679003D01*
X157760526Y-96671824D01*
X157810851Y-96537580D01*
X157817500Y-96476377D01*
X157817499Y-95781624D01*
X157817130Y-95778224D01*
X157811705Y-95728278D01*
X157811704Y-95728274D01*
X157810851Y-95720420D01*
X157760526Y-95586176D01*
X157755146Y-95578997D01*
X157755144Y-95578994D01*
X157679928Y-95478635D01*
X157674546Y-95471454D01*
X157667365Y-95466072D01*
X157567006Y-95390856D01*
X157567003Y-95390854D01*
X157559824Y-95385474D01*
X157470439Y-95351966D01*
X157432975Y-95337921D01*
X157432973Y-95337921D01*
X157425580Y-95335149D01*
X157417730Y-95334296D01*
X157417729Y-95334296D01*
X157367774Y-95328869D01*
X157367773Y-95328869D01*
X157364377Y-95328500D01*
X156217168Y-95328500D01*
X155069624Y-95328501D01*
X155066230Y-95328870D01*
X155066224Y-95328870D01*
X155016278Y-95334295D01*
X155016274Y-95334296D01*
X155008420Y-95335149D01*
X154874176Y-95385474D01*
X154866997Y-95390854D01*
X154866994Y-95390856D01*
X154766635Y-95466072D01*
X154759454Y-95471454D01*
X154754072Y-95478635D01*
X154678856Y-95578994D01*
X154678854Y-95578997D01*
X154673474Y-95586176D01*
X154623149Y-95720420D01*
X154620198Y-95719314D01*
X154592237Y-95768277D01*
X154529288Y-95801109D01*
X154504856Y-95803500D01*
X153974016Y-95803500D01*
X153905895Y-95783498D01*
X153884921Y-95766595D01*
X150222405Y-92104079D01*
X150188379Y-92041767D01*
X150185500Y-92014984D01*
X150185500Y-87450062D01*
X150205502Y-87381941D01*
X150254690Y-87337596D01*
X150420113Y-87254035D01*
X150420115Y-87254034D01*
X150425610Y-87251258D01*
X150587951Y-87124424D01*
X150722564Y-86968472D01*
X150743387Y-86931818D01*
X150821276Y-86794707D01*
X150824323Y-86789344D01*
X150889351Y-86593863D01*
X150915171Y-86389474D01*
X150915583Y-86360000D01*
X150914138Y-86345262D01*
X151344520Y-86345262D01*
X151361759Y-86550553D01*
X151418544Y-86748586D01*
X151421359Y-86754063D01*
X151421360Y-86754066D01*
X151442247Y-86794707D01*
X151512712Y-86931818D01*
X151640677Y-87093270D01*
X151797564Y-87226791D01*
X151977398Y-87327297D01*
X151983255Y-87329200D01*
X151987441Y-87330560D01*
X152046045Y-87370636D01*
X152073679Y-87436034D01*
X152074500Y-87450392D01*
X152074500Y-92436290D01*
X152074020Y-92447272D01*
X152071773Y-92472960D01*
X152070736Y-92484807D01*
X152073590Y-92495456D01*
X152080491Y-92521210D01*
X152082870Y-92531942D01*
X152089412Y-92569045D01*
X152094923Y-92578590D01*
X152096115Y-92581866D01*
X152097592Y-92585034D01*
X152100446Y-92595684D01*
X152106770Y-92604715D01*
X152122055Y-92626544D01*
X152127961Y-92635815D01*
X152141293Y-92658906D01*
X152146806Y-92668455D01*
X152159380Y-92679006D01*
X152175682Y-92692685D01*
X152183785Y-92700111D01*
X153824572Y-94340898D01*
X153831999Y-94349002D01*
X153856228Y-94377877D01*
X153865777Y-94383390D01*
X153888868Y-94396722D01*
X153898139Y-94402628D01*
X153928999Y-94424237D01*
X153939650Y-94427091D01*
X153942823Y-94428571D01*
X153946095Y-94429762D01*
X153955638Y-94435271D01*
X153992759Y-94441817D01*
X154003466Y-94444191D01*
X154039876Y-94453946D01*
X154050851Y-94452986D01*
X154050853Y-94452986D01*
X154077414Y-94450662D01*
X154088395Y-94450183D01*
X154504856Y-94450183D01*
X154572977Y-94470185D01*
X154619470Y-94523841D01*
X154622757Y-94533410D01*
X154623149Y-94533263D01*
X154673474Y-94667507D01*
X154678854Y-94674686D01*
X154678856Y-94674689D01*
X154754072Y-94775048D01*
X154759454Y-94782229D01*
X154766635Y-94787611D01*
X154866994Y-94862827D01*
X154866997Y-94862829D01*
X154874176Y-94868209D01*
X154963561Y-94901717D01*
X155001025Y-94915762D01*
X155001027Y-94915762D01*
X155008420Y-94918534D01*
X155016270Y-94919387D01*
X155016271Y-94919387D01*
X155022641Y-94920079D01*
X155069623Y-94925183D01*
X156216832Y-94925183D01*
X157364376Y-94925182D01*
X157367770Y-94924813D01*
X157367776Y-94924813D01*
X157417722Y-94919388D01*
X157417726Y-94919387D01*
X157425580Y-94918534D01*
X157559824Y-94868209D01*
X157567003Y-94862829D01*
X157567006Y-94862827D01*
X157667365Y-94787611D01*
X157674546Y-94782229D01*
X157679928Y-94775048D01*
X157755144Y-94674689D01*
X157755146Y-94674686D01*
X157760526Y-94667507D01*
X157810851Y-94533263D01*
X157817500Y-94472060D01*
X157817499Y-93777307D01*
X157817130Y-93773907D01*
X157811705Y-93723961D01*
X157811704Y-93723957D01*
X157810851Y-93716103D01*
X157760526Y-93581859D01*
X157755146Y-93574680D01*
X157755144Y-93574677D01*
X157679928Y-93474318D01*
X157674546Y-93467137D01*
X157667365Y-93461755D01*
X157567006Y-93386539D01*
X157567003Y-93386537D01*
X157559824Y-93381157D01*
X157470439Y-93347649D01*
X157432975Y-93333604D01*
X157432973Y-93333604D01*
X157425580Y-93330832D01*
X157417730Y-93329979D01*
X157417729Y-93329979D01*
X157367774Y-93324552D01*
X157367773Y-93324552D01*
X157364377Y-93324183D01*
X156217168Y-93324183D01*
X155069624Y-93324184D01*
X155066230Y-93324553D01*
X155066224Y-93324553D01*
X155016278Y-93329978D01*
X155016274Y-93329979D01*
X155008420Y-93330832D01*
X154874176Y-93381157D01*
X154866997Y-93386537D01*
X154866994Y-93386539D01*
X154766635Y-93461755D01*
X154759454Y-93467137D01*
X154754072Y-93474318D01*
X154678856Y-93574677D01*
X154678854Y-93574680D01*
X154673474Y-93581859D01*
X154623149Y-93716103D01*
X154620198Y-93714997D01*
X154592237Y-93763960D01*
X154529288Y-93796792D01*
X154504856Y-93799183D01*
X154255699Y-93799183D01*
X154187578Y-93779181D01*
X154166604Y-93762278D01*
X152762405Y-92358079D01*
X152728379Y-92295767D01*
X152725500Y-92268984D01*
X152725500Y-87450062D01*
X152745502Y-87381941D01*
X152794690Y-87337596D01*
X152960113Y-87254035D01*
X152960115Y-87254034D01*
X152965610Y-87251258D01*
X152993142Y-87229748D01*
X153889500Y-87229748D01*
X153901133Y-87288231D01*
X153945448Y-87354552D01*
X154011769Y-87398867D01*
X154023938Y-87401288D01*
X154023939Y-87401288D01*
X154064184Y-87409293D01*
X154070252Y-87410500D01*
X154488500Y-87410500D01*
X154556621Y-87430502D01*
X154603114Y-87484158D01*
X154614500Y-87536500D01*
X154614500Y-90830618D01*
X154614020Y-90841600D01*
X154610736Y-90879135D01*
X154613590Y-90889784D01*
X154620491Y-90915538D01*
X154622870Y-90926270D01*
X154629412Y-90963373D01*
X154634923Y-90972918D01*
X154636115Y-90976194D01*
X154637592Y-90979362D01*
X154640446Y-90990012D01*
X154646770Y-90999043D01*
X154662055Y-91020872D01*
X154667961Y-91030143D01*
X154681293Y-91053234D01*
X154686806Y-91062783D01*
X154695251Y-91069869D01*
X154715682Y-91087013D01*
X154723785Y-91094439D01*
X154850850Y-91221504D01*
X154884876Y-91283816D01*
X154879811Y-91354631D01*
X154837321Y-91411423D01*
X154759454Y-91469782D01*
X154754072Y-91476963D01*
X154678856Y-91577322D01*
X154678854Y-91577325D01*
X154673474Y-91584504D01*
X154623149Y-91718748D01*
X154616500Y-91779951D01*
X154616501Y-92474704D01*
X154616870Y-92478098D01*
X154616870Y-92478104D01*
X154622130Y-92526525D01*
X154623149Y-92535908D01*
X154673474Y-92670152D01*
X154678854Y-92677331D01*
X154678856Y-92677334D01*
X154695927Y-92700111D01*
X154759454Y-92784874D01*
X154766635Y-92790256D01*
X154866994Y-92865472D01*
X154866997Y-92865474D01*
X154874176Y-92870854D01*
X154963561Y-92904362D01*
X155001025Y-92918407D01*
X155001027Y-92918407D01*
X155008420Y-92921179D01*
X155016270Y-92922032D01*
X155016271Y-92922032D01*
X155023810Y-92922851D01*
X155069623Y-92927828D01*
X156216832Y-92927828D01*
X157364376Y-92927827D01*
X157367770Y-92927458D01*
X157367776Y-92927458D01*
X157417722Y-92922033D01*
X157417726Y-92922032D01*
X157425580Y-92921179D01*
X157559824Y-92870854D01*
X157567003Y-92865474D01*
X157567006Y-92865472D01*
X157667365Y-92790256D01*
X157674546Y-92784874D01*
X157738073Y-92700111D01*
X157755144Y-92677334D01*
X157755146Y-92677331D01*
X157760526Y-92670152D01*
X157810851Y-92535908D01*
X157817500Y-92474705D01*
X157817499Y-91779952D01*
X157817130Y-91776552D01*
X157811705Y-91726606D01*
X157811704Y-91726602D01*
X157810851Y-91718748D01*
X157760526Y-91584504D01*
X157755146Y-91577325D01*
X157755144Y-91577322D01*
X157679928Y-91476963D01*
X157674546Y-91469782D01*
X157667365Y-91464400D01*
X157567006Y-91389184D01*
X157567003Y-91389182D01*
X157559824Y-91383802D01*
X157437443Y-91337924D01*
X157432975Y-91336249D01*
X157432973Y-91336249D01*
X157425580Y-91333477D01*
X157417730Y-91332624D01*
X157417729Y-91332624D01*
X157367774Y-91327197D01*
X157367773Y-91327197D01*
X157364377Y-91326828D01*
X157272968Y-91326828D01*
X155929017Y-91326829D01*
X155860896Y-91306827D01*
X155839922Y-91289924D01*
X155302405Y-90752407D01*
X155268379Y-90690095D01*
X155265500Y-90663312D01*
X155265500Y-87536500D01*
X155285502Y-87468379D01*
X155339158Y-87421886D01*
X155391500Y-87410500D01*
X155809748Y-87410500D01*
X155815816Y-87409293D01*
X155856061Y-87401288D01*
X155856062Y-87401288D01*
X155868231Y-87398867D01*
X155934552Y-87354552D01*
X155978867Y-87288231D01*
X155990500Y-87229748D01*
X155990500Y-85490252D01*
X155978867Y-85431769D01*
X155934552Y-85365448D01*
X155868231Y-85321133D01*
X155856062Y-85318712D01*
X155856061Y-85318712D01*
X155815816Y-85310707D01*
X155809748Y-85309500D01*
X154070252Y-85309500D01*
X154064184Y-85310707D01*
X154023939Y-85318712D01*
X154023938Y-85318712D01*
X154011769Y-85321133D01*
X153945448Y-85365448D01*
X153901133Y-85431769D01*
X153889500Y-85490252D01*
X153889500Y-87229748D01*
X152993142Y-87229748D01*
X153127951Y-87124424D01*
X153262564Y-86968472D01*
X153283387Y-86931818D01*
X153361276Y-86794707D01*
X153364323Y-86789344D01*
X153429351Y-86593863D01*
X153455171Y-86389474D01*
X153455583Y-86360000D01*
X153435480Y-86154970D01*
X153375935Y-85957749D01*
X153279218Y-85775849D01*
X153205859Y-85685902D01*
X153152906Y-85620975D01*
X153152903Y-85620972D01*
X153149011Y-85616200D01*
X153131786Y-85601950D01*
X152995025Y-85488811D01*
X152995021Y-85488809D01*
X152990275Y-85484882D01*
X152809055Y-85386897D01*
X152612254Y-85325977D01*
X152606129Y-85325333D01*
X152606128Y-85325333D01*
X152413498Y-85305087D01*
X152413496Y-85305087D01*
X152407369Y-85304443D01*
X152320529Y-85312346D01*
X152208342Y-85322555D01*
X152208339Y-85322556D01*
X152202203Y-85323114D01*
X152004572Y-85381280D01*
X151822002Y-85476726D01*
X151817201Y-85480586D01*
X151817198Y-85480588D01*
X151666254Y-85601950D01*
X151661447Y-85605815D01*
X151529024Y-85763630D01*
X151526056Y-85769028D01*
X151526053Y-85769033D01*
X151519315Y-85781290D01*
X151429776Y-85944162D01*
X151367484Y-86140532D01*
X151366798Y-86146649D01*
X151366797Y-86146653D01*
X151345207Y-86339137D01*
X151344520Y-86345262D01*
X150914138Y-86345262D01*
X150895480Y-86154970D01*
X150835935Y-85957749D01*
X150739218Y-85775849D01*
X150665859Y-85685902D01*
X150612906Y-85620975D01*
X150612903Y-85620972D01*
X150609011Y-85616200D01*
X150591786Y-85601950D01*
X150455025Y-85488811D01*
X150455021Y-85488809D01*
X150450275Y-85484882D01*
X150269055Y-85386897D01*
X150072254Y-85325977D01*
X150066129Y-85325333D01*
X150066128Y-85325333D01*
X149873498Y-85305087D01*
X149873496Y-85305087D01*
X149867369Y-85304443D01*
X149780529Y-85312346D01*
X149668342Y-85322555D01*
X149668339Y-85322556D01*
X149662203Y-85323114D01*
X149464572Y-85381280D01*
X149282002Y-85476726D01*
X149277201Y-85480586D01*
X149277198Y-85480588D01*
X149126254Y-85601950D01*
X149121447Y-85605815D01*
X148989024Y-85763630D01*
X148986056Y-85769028D01*
X148986053Y-85769033D01*
X148979315Y-85781290D01*
X148889776Y-85944162D01*
X148827484Y-86140532D01*
X148826798Y-86146649D01*
X148826797Y-86146653D01*
X148805207Y-86339137D01*
X148804520Y-86345262D01*
X145830500Y-86345262D01*
X145830500Y-85490252D01*
X145818867Y-85431769D01*
X145774552Y-85365448D01*
X145708231Y-85321133D01*
X145696062Y-85318712D01*
X145696061Y-85318712D01*
X145655816Y-85310707D01*
X145649748Y-85309500D01*
X143910252Y-85309500D01*
X143904184Y-85310707D01*
X143863939Y-85318712D01*
X143863938Y-85318712D01*
X143851769Y-85321133D01*
X143785448Y-85365448D01*
X143741133Y-85431769D01*
X143729500Y-85490252D01*
X143729500Y-87229748D01*
X142833142Y-87229748D01*
X142967951Y-87124424D01*
X143102564Y-86968472D01*
X143123387Y-86931818D01*
X143201276Y-86794707D01*
X143204323Y-86789344D01*
X143269351Y-86593863D01*
X143295171Y-86389474D01*
X143295583Y-86360000D01*
X143275480Y-86154970D01*
X143215935Y-85957749D01*
X143119218Y-85775849D01*
X143045859Y-85685902D01*
X142992906Y-85620975D01*
X142992903Y-85620972D01*
X142989011Y-85616200D01*
X142971786Y-85601950D01*
X142835025Y-85488811D01*
X142835021Y-85488809D01*
X142830275Y-85484882D01*
X142649055Y-85386897D01*
X142452254Y-85325977D01*
X142446129Y-85325333D01*
X142446128Y-85325333D01*
X142253498Y-85305087D01*
X142253496Y-85305087D01*
X142247369Y-85304443D01*
X142160529Y-85312346D01*
X142048342Y-85322555D01*
X142048339Y-85322556D01*
X142042203Y-85323114D01*
X141844572Y-85381280D01*
X141662002Y-85476726D01*
X141657201Y-85480586D01*
X141657198Y-85480588D01*
X141506254Y-85601950D01*
X141501447Y-85605815D01*
X141369024Y-85763630D01*
X141366056Y-85769028D01*
X141366053Y-85769033D01*
X141359315Y-85781290D01*
X141269776Y-85944162D01*
X141207484Y-86140532D01*
X141206798Y-86146649D01*
X141206797Y-86146653D01*
X141185207Y-86339137D01*
X141184520Y-86345262D01*
X125510500Y-86345262D01*
X125510500Y-85490252D01*
X125498867Y-85431769D01*
X125454552Y-85365448D01*
X125388231Y-85321133D01*
X125376062Y-85318712D01*
X125376061Y-85318712D01*
X125335816Y-85310707D01*
X125329748Y-85309500D01*
X123590252Y-85309500D01*
X123584184Y-85310707D01*
X123543939Y-85318712D01*
X123543938Y-85318712D01*
X123531769Y-85321133D01*
X123465448Y-85365448D01*
X123421133Y-85431769D01*
X123409500Y-85490252D01*
X123409500Y-87229748D01*
X123421133Y-87288231D01*
X123465448Y-87354552D01*
X123531769Y-87398867D01*
X123543938Y-87401288D01*
X123543939Y-87401288D01*
X123584184Y-87409293D01*
X123590252Y-87410500D01*
X123633500Y-87410500D01*
X123701621Y-87430502D01*
X123748114Y-87484158D01*
X123759500Y-87536500D01*
X123759500Y-88543653D01*
X123739498Y-88611774D01*
X123722595Y-88632748D01*
X121063747Y-91291596D01*
X121001435Y-91325622D01*
X120974652Y-91328501D01*
X120069624Y-91328501D01*
X120066230Y-91328870D01*
X120066224Y-91328870D01*
X120016278Y-91334295D01*
X120016274Y-91334296D01*
X120008420Y-91335149D01*
X119874176Y-91385474D01*
X119866997Y-91390854D01*
X119866994Y-91390856D01*
X119768866Y-91464400D01*
X119759454Y-91471454D01*
X119754072Y-91478635D01*
X119678856Y-91578994D01*
X119678854Y-91578997D01*
X119673474Y-91586176D01*
X119623149Y-91720420D01*
X119616500Y-91781623D01*
X118768000Y-91781623D01*
X118768000Y-83842000D01*
X118788002Y-83773879D01*
X118841658Y-83727386D01*
X118894000Y-83716000D01*
X174806200Y-83716000D01*
X174874321Y-83736002D01*
G37*
%TD.AperFunction*%
%TD*%
M02*
